<?xml version="1.0" encoding="utf-8" standalone="no"?>
<!DOCTYPE svg PUBLIC "-//W3C//DTD SVG 1.1//EN"
  "http://www.w3.org/Graphics/SVG/1.1/DTD/svg11.dtd">
<svg xmlns:xlink="http://www.w3.org/1999/xlink" width="936pt" height="288pt" viewBox="0 0 936 288" xmlns="http://www.w3.org/2000/svg" version="1.1">
 <metadata>
  <rdf:RDF xmlns:dc="http://purl.org/dc/elements/1.1/" xmlns:cc="http://creativecommons.org/ns#" xmlns:rdf="http://www.w3.org/1999/02/22-rdf-syntax-ns#">
   <cc:Work>
    <dc:type rdf:resource="http://purl.org/dc/dcmitype/StillImage"/>
    <dc:date>2026-10-04T17:43:48.055610</dc:date>
    <dc:format>image/svg+xml</dc:format>
    <dc:creator>
     <cc:Agent>
      <dc:title>Matplotlib v3.11.2, https://matplotlib.org/</dc:title>
     </cc:Agent>
    </dc:creator>
   </cc:Work>
  </rdf:RDF>
 </metadata>
 <defs>
  <style type="text/css">*{stroke-linejoin: round; stroke-linecap: butt}</style>
 </defs>
 <g id="figure_1">
  <g id="patch_1">
   <path d="M 0 288 
L 936 288 
L 936 0 
L 0 0 
z
" style="fill: #ffffff"/>
  </g>
  <g id="axes_1">
   <g id="patch_2">
    <path d="M 47.962344 245.877656 
L 308.4 245.877656 
L 308.4 26.16 
L 47.962344 26.16 
z
" style="fill: #ffffff"/>
   </g>
   <g id="matplotlib.axis_1">
    <g id="xtick_1">
     <g id="line2d_1">
      <defs>
       <path id="m2dcdbf24ba" d="M 0 0 
L 0 3.5 
" style="stroke: #000000; stroke-width: 0.8"/>
      </defs>
      <g>
       <use xlink:href="#m2dcdbf24ba" x="59.800419" y="245.877656" style="stroke: #000000; stroke-width: 0.8"/>
      </g>
     </g>
     <g id="text_1">
      <!-- 0.1 -->
      <g transform="translate(51.848857 260.475312) scale(0.1 -0.1)">
       <defs>
        <path id="DejaVuSans-13" d="M 2034 4250 
Q 1547 4250 1301 3770 
Q 1056 3291 1056 2328 
Q 1056 1369 1301 889 
Q 1547 409 2034 409 
Q 2525 409 2770 889 
Q 3016 1369 3016 2328 
Q 3016 3291 2770 3770 
Q 2525 4250 2034 4250 
z
M 2034 4750 
Q 2819 4750 3233 4129 
Q 3647 3509 3647 2328 
Q 3647 1150 3233 529 
Q 2819 -91 2034 -91 
Q 1250 -91 836 529 
Q 422 1150 422 2328 
Q 422 3509 836 4129 
Q 1250 4750 2034 4750 
z
" transform="scale(0.015625)"/>
        <path id="DejaVuSans-11" d="M 684 794 
L 1344 794 
L 1344 0 
L 684 0 
L 684 794 
z
" transform="scale(0.015625)"/>
        <path id="DejaVuSans-14" d="M 794 531 
L 1825 531 
L 1825 4091 
L 703 3866 
L 703 4441 
L 1819 4666 
L 2450 4666 
L 2450 531 
L 3481 531 
L 3481 0 
L 794 0 
L 794 531 
z
" transform="scale(0.015625)"/>
       </defs>
       <use xlink:href="#DejaVuSans-13"/>
       <use xlink:href="#DejaVuSans-11" transform="translate(63.625 0)"/>
       <use xlink:href="#DejaVuSans-14" transform="translate(95.40625 0)"/>
      </g>
     </g>
    </g>
    <g id="xtick_2">
     <g id="line2d_2">
      <g>
       <use xlink:href="#m2dcdbf24ba" x="118.990795" y="245.877656" style="stroke: #000000; stroke-width: 0.8"/>
      </g>
     </g>
     <g id="text_2">
      <!-- 0.2 -->
      <g transform="translate(111.039233 260.475312) scale(0.1 -0.1)">
       <defs>
        <path id="DejaVuSans-15" d="M 1228 531 
L 3431 531 
L 3431 0 
L 469 0 
L 469 531 
Q 828 903 1448 1529 
Q 2069 2156 2228 2338 
Q 2531 2678 2651 2914 
Q 2772 3150 2772 3378 
Q 2772 3750 2511 3984 
Q 2250 4219 1831 4219 
Q 1534 4219 1204 4116 
Q 875 4013 500 3803 
L 500 4441 
Q 881 4594 1212 4672 
Q 1544 4750 1819 4750 
Q 2544 4750 2975 4387 
Q 3406 4025 3406 3419 
Q 3406 3131 3298 2873 
Q 3191 2616 2906 2266 
Q 2828 2175 2409 1742 
Q 1991 1309 1228 531 
z
" transform="scale(0.015625)"/>
       </defs>
       <use xlink:href="#DejaVuSans-13"/>
       <use xlink:href="#DejaVuSans-11" transform="translate(63.625 0)"/>
       <use xlink:href="#DejaVuSans-15" transform="translate(95.40625 0)"/>
      </g>
     </g>
    </g>
    <g id="xtick_3">
     <g id="line2d_3">
      <g>
       <use xlink:href="#m2dcdbf24ba" x="178.181172" y="245.877656" style="stroke: #000000; stroke-width: 0.8"/>
      </g>
     </g>
     <g id="text_3">
      <!-- 0.3 -->
      <g transform="translate(170.229609 260.475312) scale(0.1 -0.1)">
       <defs>
        <path id="DejaVuSans-16" d="M 2597 2516 
Q 3050 2419 3304 2112 
Q 3559 1806 3559 1356 
Q 3559 666 3084 287 
Q 2609 -91 1734 -91 
Q 1441 -91 1130 -33 
Q 819 25 488 141 
L 488 750 
Q 750 597 1062 519 
Q 1375 441 1716 441 
Q 2309 441 2620 675 
Q 2931 909 2931 1356 
Q 2931 1769 2642 2001 
Q 2353 2234 1838 2234 
L 1294 2234 
L 1294 2753 
L 1863 2753 
Q 2328 2753 2575 2939 
Q 2822 3125 2822 3475 
Q 2822 3834 2567 4026 
Q 2313 4219 1838 4219 
Q 1578 4219 1281 4162 
Q 984 4106 628 3988 
L 628 4550 
Q 988 4650 1302 4700 
Q 1616 4750 1894 4750 
Q 2613 4750 3031 4423 
Q 3450 4097 3450 3541 
Q 3450 3153 3228 2886 
Q 3006 2619 2597 2516 
z
" transform="scale(0.015625)"/>
       </defs>
       <use xlink:href="#DejaVuSans-13"/>
       <use xlink:href="#DejaVuSans-11" transform="translate(63.625 0)"/>
       <use xlink:href="#DejaVuSans-16" transform="translate(95.40625 0)"/>
      </g>
     </g>
    </g>
    <g id="xtick_4">
     <g id="line2d_4">
      <g>
       <use xlink:href="#m2dcdbf24ba" x="237.371548" y="245.877656" style="stroke: #000000; stroke-width: 0.8"/>
      </g>
     </g>
     <g id="text_4">
      <!-- 0.4 -->
      <g transform="translate(229.419986 260.475312) scale(0.1 -0.1)">
       <defs>
        <path id="DejaVuSans-17" d="M 2419 4116 
L 825 1625 
L 2419 1625 
L 2419 4116 
z
M 2253 4666 
L 3047 4666 
L 3047 1625 
L 3713 1625 
L 3713 1100 
L 3047 1100 
L 3047 0 
L 2419 0 
L 2419 1100 
L 313 1100 
L 313 1709 
L 2253 4666 
z
" transform="scale(0.015625)"/>
       </defs>
       <use xlink:href="#DejaVuSans-13"/>
       <use xlink:href="#DejaVuSans-11" transform="translate(63.625 0)"/>
       <use xlink:href="#DejaVuSans-17" transform="translate(95.40625 0)"/>
      </g>
     </g>
    </g>
    <g id="xtick_5">
     <g id="line2d_5">
      <g>
       <use xlink:href="#m2dcdbf24ba" x="296.561925" y="245.877656" style="stroke: #000000; stroke-width: 0.8"/>
      </g>
     </g>
     <g id="text_5">
      <!-- 0.5 -->
      <g transform="translate(288.610362 260.475312) scale(0.1 -0.1)">
       <defs>
        <path id="DejaVuSans-18" d="M 691 4666 
L 3169 4666 
L 3169 4134 
L 1269 4134 
L 1269 2991 
Q 1406 3038 1543 3061 
Q 1681 3084 1819 3084 
Q 2600 3084 3056 2656 
Q 3513 2228 3513 1497 
Q 3513 744 3044 326 
Q 2575 -91 1722 -91 
Q 1428 -91 1123 -41 
Q 819 9 494 109 
L 494 744 
Q 775 591 1075 516 
Q 1375 441 1709 441 
Q 2250 441 2565 725 
Q 2881 1009 2881 1497 
Q 2881 1984 2565 2268 
Q 2250 2553 1709 2553 
Q 1456 2553 1204 2497 
Q 953 2441 691 2322 
L 691 4666 
z
" transform="scale(0.015625)"/>
       </defs>
       <use xlink:href="#DejaVuSans-13"/>
       <use xlink:href="#DejaVuSans-11" transform="translate(63.625 0)"/>
       <use xlink:href="#DejaVuSans-18" transform="translate(95.40625 0)"/>
      </g>
     </g>
    </g>
    <g id="text_6">
     <!-- Maximum byte budget ratio -->
     <g transform="translate(108.351484 274.476094) scale(0.1 -0.1)">
      <defs>
       <path id="DejaVuSans-30" d="M 628 4666 
L 1569 4666 
L 2759 1491 
L 3956 4666 
L 4897 4666 
L 4897 0 
L 4281 0 
L 4281 4097 
L 3078 897 
L 2444 897 
L 1241 4097 
L 1241 0 
L 628 0 
L 628 4666 
z
" transform="scale(0.015625)"/>
       <path id="DejaVuSans-44" d="M 2194 1759 
Q 1497 1759 1228 1600 
Q 959 1441 959 1056 
Q 959 750 1161 570 
Q 1363 391 1709 391 
Q 2188 391 2477 730 
Q 2766 1069 2766 1631 
L 2766 1759 
L 2194 1759 
z
M 3341 1997 
L 3341 0 
L 2766 0 
L 2766 531 
Q 2569 213 2275 61 
Q 1981 -91 1556 -91 
Q 1019 -91 701 211 
Q 384 513 384 1019 
Q 384 1609 779 1909 
Q 1175 2209 1959 2209 
L 2766 2209 
L 2766 2266 
Q 2766 2663 2505 2880 
Q 2244 3097 1772 3097 
Q 1472 3097 1187 3025 
Q 903 2953 641 2809 
L 641 3341 
Q 956 3463 1253 3523 
Q 1550 3584 1831 3584 
Q 2591 3584 2966 3190 
Q 3341 2797 3341 1997 
z
" transform="scale(0.015625)"/>
       <path id="DejaVuSans-5b" d="M 3513 3500 
L 2247 1797 
L 3578 0 
L 2900 0 
L 1881 1375 
L 863 0 
L 184 0 
L 1544 1831 
L 300 3500 
L 978 3500 
L 1906 2253 
L 2834 3500 
L 3513 3500 
z
" transform="scale(0.015625)"/>
       <path id="DejaVuSans-4c" d="M 603 3500 
L 1178 3500 
L 1178 0 
L 603 0 
L 603 3500 
z
M 603 4863 
L 1178 4863 
L 1178 4134 
L 603 4134 
L 603 4863 
z
" transform="scale(0.015625)"/>
       <path id="DejaVuSans-50" d="M 3328 2828 
Q 3544 3216 3844 3400 
Q 4144 3584 4550 3584 
Q 5097 3584 5394 3201 
Q 5691 2819 5691 2113 
L 5691 0 
L 5113 0 
L 5113 2094 
Q 5113 2597 4934 2840 
Q 4756 3084 4391 3084 
Q 3944 3084 3684 2787 
Q 3425 2491 3425 1978 
L 3425 0 
L 2847 0 
L 2847 2094 
Q 2847 2600 2669 2842 
Q 2491 3084 2119 3084 
Q 1678 3084 1418 2786 
Q 1159 2488 1159 1978 
L 1159 0 
L 581 0 
L 581 3500 
L 1159 3500 
L 1159 2956 
Q 1356 3278 1631 3431 
Q 1906 3584 2284 3584 
Q 2666 3584 2933 3390 
Q 3200 3197 3328 2828 
z
" transform="scale(0.015625)"/>
       <path id="DejaVuSans-58" d="M 544 1381 
L 544 3500 
L 1119 3500 
L 1119 1403 
Q 1119 906 1312 657 
Q 1506 409 1894 409 
Q 2359 409 2629 706 
Q 2900 1003 2900 1516 
L 2900 3500 
L 3475 3500 
L 3475 0 
L 2900 0 
L 2900 538 
Q 2691 219 2414 64 
Q 2138 -91 1772 -91 
Q 1169 -91 856 284 
Q 544 659 544 1381 
z
M 1991 3584 
L 1991 3584 
z
" transform="scale(0.015625)"/>
       <path id="DejaVuSans-3" transform="scale(0.015625)"/>
       <path id="DejaVuSans-45" d="M 3116 1747 
Q 3116 2381 2855 2742 
Q 2594 3103 2138 3103 
Q 1681 3103 1420 2742 
Q 1159 2381 1159 1747 
Q 1159 1113 1420 752 
Q 1681 391 2138 391 
Q 2594 391 2855 752 
Q 3116 1113 3116 1747 
z
M 1159 2969 
Q 1341 3281 1617 3432 
Q 1894 3584 2278 3584 
Q 2916 3584 3314 3078 
Q 3713 2572 3713 1747 
Q 3713 922 3314 415 
Q 2916 -91 2278 -91 
Q 1894 -91 1617 61 
Q 1341 213 1159 525 
L 1159 0 
L 581 0 
L 581 4863 
L 1159 4863 
L 1159 2969 
z
" transform="scale(0.015625)"/>
       <path id="DejaVuSans-5c" d="M 2059 -325 
Q 1816 -950 1584 -1140 
Q 1353 -1331 966 -1331 
L 506 -1331 
L 506 -850 
L 844 -850 
Q 1081 -850 1212 -737 
Q 1344 -625 1503 -206 
L 1606 56 
L 191 3500 
L 800 3500 
L 1894 763 
L 2988 3500 
L 3597 3500 
L 2059 -325 
z
" transform="scale(0.015625)"/>
       <path id="DejaVuSans-57" d="M 1172 4494 
L 1172 3500 
L 2356 3500 
L 2356 3053 
L 1172 3053 
L 1172 1153 
Q 1172 725 1289 603 
Q 1406 481 1766 481 
L 2356 481 
L 2356 0 
L 1766 0 
Q 1100 0 847 248 
Q 594 497 594 1153 
L 594 3053 
L 172 3053 
L 172 3500 
L 594 3500 
L 594 4494 
L 1172 4494 
z
" transform="scale(0.015625)"/>
       <path id="DejaVuSans-48" d="M 3597 1894 
L 3597 1613 
L 953 1613 
Q 991 1019 1311 708 
Q 1631 397 2203 397 
Q 2534 397 2845 478 
Q 3156 559 3463 722 
L 3463 178 
Q 3153 47 2828 -22 
Q 2503 -91 2169 -91 
Q 1331 -91 842 396 
Q 353 884 353 1716 
Q 353 2575 817 3079 
Q 1281 3584 2069 3584 
Q 2775 3584 3186 3129 
Q 3597 2675 3597 1894 
z
M 3022 2063 
Q 3016 2534 2758 2815 
Q 2500 3097 2075 3097 
Q 1594 3097 1305 2825 
Q 1016 2553 972 2059 
L 3022 2063 
z
" transform="scale(0.015625)"/>
       <path id="DejaVuSans-47" d="M 2906 2969 
L 2906 4863 
L 3481 4863 
L 3481 0 
L 2906 0 
L 2906 525 
Q 2725 213 2448 61 
Q 2172 -91 1784 -91 
Q 1150 -91 751 415 
Q 353 922 353 1747 
Q 353 2572 751 3078 
Q 1150 3584 1784 3584 
Q 2172 3584 2448 3432 
Q 2725 3281 2906 2969 
z
M 947 1747 
Q 947 1113 1208 752 
Q 1469 391 1925 391 
Q 2381 391 2643 752 
Q 2906 1113 2906 1747 
Q 2906 2381 2643 2742 
Q 2381 3103 1925 3103 
Q 1469 3103 1208 2742 
Q 947 2381 947 1747 
z
" transform="scale(0.015625)"/>
       <path id="DejaVuSans-4a" d="M 2906 1791 
Q 2906 2416 2648 2759 
Q 2391 3103 1925 3103 
Q 1463 3103 1205 2759 
Q 947 2416 947 1791 
Q 947 1169 1205 825 
Q 1463 481 1925 481 
Q 2391 481 2648 825 
Q 2906 1169 2906 1791 
z
M 3481 434 
Q 3481 -459 3084 -895 
Q 2688 -1331 1869 -1331 
Q 1566 -1331 1297 -1286 
Q 1028 -1241 775 -1147 
L 775 -588 
Q 1028 -725 1275 -790 
Q 1522 -856 1778 -856 
Q 2344 -856 2625 -561 
Q 2906 -266 2906 331 
L 2906 616 
Q 2728 306 2450 153 
Q 2172 0 1784 0 
Q 1141 0 747 490 
Q 353 981 353 1791 
Q 353 2603 747 3093 
Q 1141 3584 1784 3584 
Q 2172 3584 2450 3431 
Q 2728 3278 2906 2969 
L 2906 3500 
L 3481 3500 
L 3481 434 
z
" transform="scale(0.015625)"/>
       <path id="DejaVuSans-55" d="M 2631 2963 
Q 2534 3019 2420 3045 
Q 2306 3072 2169 3072 
Q 1681 3072 1420 2755 
Q 1159 2438 1159 1844 
L 1159 0 
L 581 0 
L 581 3500 
L 1159 3500 
L 1159 2956 
Q 1341 3275 1631 3429 
Q 1922 3584 2338 3584 
Q 2397 3584 2469 3576 
Q 2541 3569 2628 3553 
L 2631 2963 
z
" transform="scale(0.015625)"/>
       <path id="DejaVuSans-52" d="M 1959 3097 
Q 1497 3097 1228 2736 
Q 959 2375 959 1747 
Q 959 1119 1226 758 
Q 1494 397 1959 397 
Q 2419 397 2687 759 
Q 2956 1122 2956 1747 
Q 2956 2369 2687 2733 
Q 2419 3097 1959 3097 
z
M 1959 3584 
Q 2709 3584 3137 3096 
Q 3566 2609 3566 1747 
Q 3566 888 3137 398 
Q 2709 -91 1959 -91 
Q 1206 -91 779 398 
Q 353 888 353 1747 
Q 353 2609 779 3096 
Q 1206 3584 1959 3584 
z
" transform="scale(0.015625)"/>
      </defs>
      <use xlink:href="#DejaVuSans-30"/>
      <use xlink:href="#DejaVuSans-44" transform="translate(86.28125 0)"/>
      <use xlink:href="#DejaVuSans-5b" transform="translate(147.5625 0)"/>
      <use xlink:href="#DejaVuSans-4c" transform="translate(206.75 0)"/>
      <use xlink:href="#DejaVuSans-50" transform="translate(234.53125 0)"/>
      <use xlink:href="#DejaVuSans-58" transform="translate(331.9375 0)"/>
      <use xlink:href="#DejaVuSans-50" transform="translate(395.3125 0)"/>
      <use xlink:href="#DejaVuSans-3" transform="translate(492.71875 0)"/>
      <use xlink:href="#DejaVuSans-45" transform="translate(524.5 0)"/>
      <use xlink:href="#DejaVuSans-5c" transform="translate(587.984375 0)"/>
      <use xlink:href="#DejaVuSans-57" transform="translate(647.171875 0)"/>
      <use xlink:href="#DejaVuSans-48" transform="translate(686.375 0)"/>
      <use xlink:href="#DejaVuSans-3" transform="translate(747.90625 0)"/>
      <use xlink:href="#DejaVuSans-45" transform="translate(779.6875 0)"/>
      <use xlink:href="#DejaVuSans-58" transform="translate(843.171875 0)"/>
      <use xlink:href="#DejaVuSans-47" transform="translate(906.546875 0)"/>
      <use xlink:href="#DejaVuSans-4a" transform="translate(970.03125 0)"/>
      <use xlink:href="#DejaVuSans-48" transform="translate(1033.515625 0)"/>
      <use xlink:href="#DejaVuSans-57" transform="translate(1095.046875 0)"/>
      <use xlink:href="#DejaVuSans-3" transform="translate(1134.25 0)"/>
      <use xlink:href="#DejaVuSans-55" transform="translate(1166.03125 0)"/>
      <use xlink:href="#DejaVuSans-44" transform="translate(1207.140625 0)"/>
      <use xlink:href="#DejaVuSans-57" transform="translate(1268.421875 0)"/>
      <use xlink:href="#DejaVuSans-4c" transform="translate(1307.625 0)"/>
      <use xlink:href="#DejaVuSans-52" transform="translate(1335.40625 0)"/>
     </g>
    </g>
   </g>
   <g id="matplotlib.axis_2">
    <g id="ytick_1">
     <g id="line2d_6">
      <defs>
       <path id="m22bc83458c" d="M 0 0 
L -3.5 0 
" style="stroke: #000000; stroke-width: 0.8"/>
      </defs>
      <g>
       <use xlink:href="#m22bc83458c" x="47.962344" y="241.572517" style="stroke: #000000; stroke-width: 0.8"/>
      </g>
     </g>
     <g id="text_7">
      <!-- 0.5 -->
      <g transform="translate(25.059219 245.371345) scale(0.1 -0.1)">
       <use xlink:href="#DejaVuSans-13"/>
       <use xlink:href="#DejaVuSans-11" transform="translate(63.625 0)"/>
       <use xlink:href="#DejaVuSans-18" transform="translate(95.40625 0)"/>
      </g>
     </g>
    </g>
    <g id="ytick_2">
     <g id="line2d_7">
      <g>
       <use xlink:href="#m22bc83458c" x="47.962344" y="194.901599" style="stroke: #000000; stroke-width: 0.8"/>
      </g>
     </g>
     <g id="text_8">
      <!-- 0.6 -->
      <g transform="translate(25.059219 198.700427) scale(0.1 -0.1)">
       <defs>
        <path id="DejaVuSans-19" d="M 2113 2584 
Q 1688 2584 1439 2293 
Q 1191 2003 1191 1497 
Q 1191 994 1439 701 
Q 1688 409 2113 409 
Q 2538 409 2786 701 
Q 3034 994 3034 1497 
Q 3034 2003 2786 2293 
Q 2538 2584 2113 2584 
z
M 3366 4563 
L 3366 3988 
Q 3128 4100 2886 4159 
Q 2644 4219 2406 4219 
Q 1781 4219 1451 3797 
Q 1122 3375 1075 2522 
Q 1259 2794 1537 2939 
Q 1816 3084 2150 3084 
Q 2853 3084 3261 2657 
Q 3669 2231 3669 1497 
Q 3669 778 3244 343 
Q 2819 -91 2113 -91 
Q 1303 -91 875 529 
Q 447 1150 447 2328 
Q 447 3434 972 4092 
Q 1497 4750 2381 4750 
Q 2619 4750 2861 4703 
Q 3103 4656 3366 4563 
z
" transform="scale(0.015625)"/>
       </defs>
       <use xlink:href="#DejaVuSans-13"/>
       <use xlink:href="#DejaVuSans-11" transform="translate(63.625 0)"/>
       <use xlink:href="#DejaVuSans-19" transform="translate(95.40625 0)"/>
      </g>
     </g>
    </g>
    <g id="ytick_3">
     <g id="line2d_8">
      <g>
       <use xlink:href="#m22bc83458c" x="47.962344" y="148.230681" style="stroke: #000000; stroke-width: 0.8"/>
      </g>
     </g>
     <g id="text_9">
      <!-- 0.7 -->
      <g transform="translate(25.059219 152.029509) scale(0.1 -0.1)">
       <defs>
        <path id="DejaVuSans-1a" d="M 525 4666 
L 3525 4666 
L 3525 4397 
L 1831 0 
L 1172 0 
L 2766 4134 
L 525 4134 
L 525 4666 
z
" transform="scale(0.015625)"/>
       </defs>
       <use xlink:href="#DejaVuSans-13"/>
       <use xlink:href="#DejaVuSans-11" transform="translate(63.625 0)"/>
       <use xlink:href="#DejaVuSans-1a" transform="translate(95.40625 0)"/>
      </g>
     </g>
    </g>
    <g id="ytick_4">
     <g id="line2d_9">
      <g>
       <use xlink:href="#m22bc83458c" x="47.962344" y="101.559762" style="stroke: #000000; stroke-width: 0.8"/>
      </g>
     </g>
     <g id="text_10">
      <!-- 0.8 -->
      <g transform="translate(25.059219 105.35859) scale(0.1 -0.1)">
       <defs>
        <path id="DejaVuSans-1b" d="M 2034 2216 
Q 1584 2216 1326 1975 
Q 1069 1734 1069 1313 
Q 1069 891 1326 650 
Q 1584 409 2034 409 
Q 2484 409 2743 651 
Q 3003 894 3003 1313 
Q 3003 1734 2745 1975 
Q 2488 2216 2034 2216 
z
M 1403 2484 
Q 997 2584 770 2862 
Q 544 3141 544 3541 
Q 544 4100 942 4425 
Q 1341 4750 2034 4750 
Q 2731 4750 3128 4425 
Q 3525 4100 3525 3541 
Q 3525 3141 3298 2862 
Q 3072 2584 2669 2484 
Q 3125 2378 3379 2068 
Q 3634 1759 3634 1313 
Q 3634 634 3220 271 
Q 2806 -91 2034 -91 
Q 1263 -91 848 271 
Q 434 634 434 1313 
Q 434 1759 690 2068 
Q 947 2378 1403 2484 
z
M 1172 3481 
Q 1172 3119 1398 2916 
Q 1625 2713 2034 2713 
Q 2441 2713 2670 2916 
Q 2900 3119 2900 3481 
Q 2900 3844 2670 4047 
Q 2441 4250 2034 4250 
Q 1625 4250 1398 4047 
Q 1172 3844 1172 3481 
z
" transform="scale(0.015625)"/>
       </defs>
       <use xlink:href="#DejaVuSans-13"/>
       <use xlink:href="#DejaVuSans-11" transform="translate(63.625 0)"/>
       <use xlink:href="#DejaVuSans-1b" transform="translate(95.40625 0)"/>
      </g>
     </g>
    </g>
    <g id="ytick_5">
     <g id="line2d_10">
      <g>
       <use xlink:href="#m22bc83458c" x="47.962344" y="54.888844" style="stroke: #000000; stroke-width: 0.8"/>
      </g>
     </g>
     <g id="text_11">
      <!-- 0.9 -->
      <g transform="translate(25.059219 58.687672) scale(0.1 -0.1)">
       <defs>
        <path id="DejaVuSans-1c" d="M 703 97 
L 703 672 
Q 941 559 1184 500 
Q 1428 441 1663 441 
Q 2288 441 2617 861 
Q 2947 1281 2994 2138 
Q 2813 1869 2534 1725 
Q 2256 1581 1919 1581 
Q 1219 1581 811 2004 
Q 403 2428 403 3163 
Q 403 3881 828 4315 
Q 1253 4750 1959 4750 
Q 2769 4750 3195 4129 
Q 3622 3509 3622 2328 
Q 3622 1225 3098 567 
Q 2575 -91 1691 -91 
Q 1453 -91 1209 -44 
Q 966 3 703 97 
z
M 1959 2075 
Q 2384 2075 2632 2365 
Q 2881 2656 2881 3163 
Q 2881 3666 2632 3958 
Q 2384 4250 1959 4250 
Q 1534 4250 1286 3958 
Q 1038 3666 1038 3163 
Q 1038 2656 1286 2365 
Q 1534 2075 1959 2075 
z
" transform="scale(0.015625)"/>
       </defs>
       <use xlink:href="#DejaVuSans-13"/>
       <use xlink:href="#DejaVuSans-11" transform="translate(63.625 0)"/>
       <use xlink:href="#DejaVuSans-1c" transform="translate(95.40625 0)"/>
      </g>
     </g>
    </g>
    <g id="text_12">
     <!-- Macro F1 (mean +/- SD) -->
     <g transform="translate(18.656875 196.347734) rotate(-90) scale(0.1 -0.1)">
      <defs>
       <path id="DejaVuSans-46" d="M 3122 3366 
L 3122 2828 
Q 2878 2963 2633 3030 
Q 2388 3097 2138 3097 
Q 1578 3097 1268 2742 
Q 959 2388 959 1747 
Q 959 1106 1268 751 
Q 1578 397 2138 397 
Q 2388 397 2633 464 
Q 2878 531 3122 666 
L 3122 134 
Q 2881 22 2623 -34 
Q 2366 -91 2075 -91 
Q 1284 -91 818 406 
Q 353 903 353 1747 
Q 353 2603 823 3093 
Q 1294 3584 2113 3584 
Q 2378 3584 2631 3529 
Q 2884 3475 3122 3366 
z
" transform="scale(0.015625)"/>
       <path id="DejaVuSans-29" d="M 628 4666 
L 3309 4666 
L 3309 4134 
L 1259 4134 
L 1259 2759 
L 3109 2759 
L 3109 2228 
L 1259 2228 
L 1259 0 
L 628 0 
L 628 4666 
z
" transform="scale(0.015625)"/>
       <path id="DejaVuSans-b" d="M 1984 4856 
Q 1566 4138 1362 3434 
Q 1159 2731 1159 2009 
Q 1159 1288 1364 580 
Q 1569 -128 1984 -844 
L 1484 -844 
Q 1016 -109 783 600 
Q 550 1309 550 2009 
Q 550 2706 781 3412 
Q 1013 4119 1484 4856 
L 1984 4856 
z
" transform="scale(0.015625)"/>
       <path id="DejaVuSans-51" d="M 3513 2113 
L 3513 0 
L 2938 0 
L 2938 2094 
Q 2938 2591 2744 2837 
Q 2550 3084 2163 3084 
Q 1697 3084 1428 2787 
Q 1159 2491 1159 1978 
L 1159 0 
L 581 0 
L 581 3500 
L 1159 3500 
L 1159 2956 
Q 1366 3272 1645 3428 
Q 1925 3584 2291 3584 
Q 2894 3584 3203 3211 
Q 3513 2838 3513 2113 
z
" transform="scale(0.015625)"/>
       <path id="DejaVuSans-e" d="M 2944 4013 
L 2944 2272 
L 4684 2272 
L 4684 1741 
L 2944 1741 
L 2944 0 
L 2419 0 
L 2419 1741 
L 678 1741 
L 678 2272 
L 2419 2272 
L 2419 4013 
L 2944 4013 
z
" transform="scale(0.015625)"/>
       <path id="DejaVuSans-12" d="M 1625 4666 
L 2156 4666 
L 531 -594 
L 0 -594 
L 1625 4666 
z
" transform="scale(0.015625)"/>
       <path id="DejaVuSans-10" d="M 313 2009 
L 1997 2009 
L 1997 1497 
L 313 1497 
L 313 2009 
z
" transform="scale(0.015625)"/>
       <path id="DejaVuSans-36" d="M 3425 4513 
L 3425 3897 
Q 3066 4069 2747 4153 
Q 2428 4238 2131 4238 
Q 1616 4238 1336 4038 
Q 1056 3838 1056 3469 
Q 1056 3159 1242 3001 
Q 1428 2844 1947 2747 
L 2328 2669 
Q 3034 2534 3370 2195 
Q 3706 1856 3706 1288 
Q 3706 609 3251 259 
Q 2797 -91 1919 -91 
Q 1588 -91 1214 -16 
Q 841 59 441 206 
L 441 856 
Q 825 641 1194 531 
Q 1563 422 1919 422 
Q 2459 422 2753 634 
Q 3047 847 3047 1241 
Q 3047 1584 2836 1778 
Q 2625 1972 2144 2069 
L 1759 2144 
Q 1053 2284 737 2584 
Q 422 2884 422 3419 
Q 422 4038 858 4394 
Q 1294 4750 2059 4750 
Q 2388 4750 2728 4690 
Q 3069 4631 3425 4513 
z
" transform="scale(0.015625)"/>
       <path id="DejaVuSans-27" d="M 1259 4147 
L 1259 519 
L 2022 519 
Q 2988 519 3436 956 
Q 3884 1394 3884 2338 
Q 3884 3275 3436 3711 
Q 2988 4147 2022 4147 
L 1259 4147 
z
M 628 4666 
L 1925 4666 
Q 3281 4666 3915 4102 
Q 4550 3538 4550 2338 
Q 4550 1131 3912 565 
Q 3275 0 1925 0 
L 628 0 
L 628 4666 
z
" transform="scale(0.015625)"/>
       <path id="DejaVuSans-c" d="M 513 4856 
L 1013 4856 
Q 1481 4119 1714 3412 
Q 1947 2706 1947 2009 
Q 1947 1309 1714 600 
Q 1481 -109 1013 -844 
L 513 -844 
Q 928 -128 1133 580 
Q 1338 1288 1338 2009 
Q 1338 2731 1133 3434 
Q 928 4138 513 4856 
z
" transform="scale(0.015625)"/>
      </defs>
      <use xlink:href="#DejaVuSans-30"/>
      <use xlink:href="#DejaVuSans-44" transform="translate(86.28125 0)"/>
      <use xlink:href="#DejaVuSans-46" transform="translate(147.5625 0)"/>
      <use xlink:href="#DejaVuSans-55" transform="translate(202.546875 0)"/>
      <use xlink:href="#DejaVuSans-52" transform="translate(241.453125 0)"/>
      <use xlink:href="#DejaVuSans-3" transform="translate(302.640625 0)"/>
      <use xlink:href="#DejaVuSans-29" transform="translate(334.421875 0)"/>
      <use xlink:href="#DejaVuSans-14" transform="translate(391.9375 0)"/>
      <use xlink:href="#DejaVuSans-3" transform="translate(455.5625 0)"/>
      <use xlink:href="#DejaVuSans-b" transform="translate(487.34375 0)"/>
      <use xlink:href="#DejaVuSans-50" transform="translate(526.359375 0)"/>
      <use xlink:href="#DejaVuSans-48" transform="translate(623.765625 0)"/>
      <use xlink:href="#DejaVuSans-44" transform="translate(685.296875 0)"/>
      <use xlink:href="#DejaVuSans-51" transform="translate(746.578125 0)"/>
      <use xlink:href="#DejaVuSans-3" transform="translate(809.953125 0)"/>
      <use xlink:href="#DejaVuSans-e" transform="translate(841.734375 0)"/>
      <use xlink:href="#DejaVuSans-12" transform="translate(925.53125 0)"/>
      <use xlink:href="#DejaVuSans-10" transform="translate(959.21875 0)"/>
      <use xlink:href="#DejaVuSans-3" transform="translate(995.296875 0)"/>
      <use xlink:href="#DejaVuSans-36" transform="translate(1027.078125 0)"/>
      <use xlink:href="#DejaVuSans-27" transform="translate(1090.5625 0)"/>
      <use xlink:href="#DejaVuSans-c" transform="translate(1167.5625 0)"/>
     </g>
    </g>
   </g>
   <g id="LineCollection_1">
    <path d="M 59.800419 174.07724 
L 59.800419 156.114968 
" clip-path="url(#pb197275ea8)" style="fill: none; stroke: #1f77b4; stroke-width: 1.5"/>
    <path d="M 148.585984 123.042767 
L 148.585984 57.751875 
" clip-path="url(#pb197275ea8)" style="fill: none; stroke: #1f77b4; stroke-width: 1.5"/>
    <path d="M 296.561925 63.66751 
L 296.561925 53.480104 
" clip-path="url(#pb197275ea8)" style="fill: none; stroke: #1f77b4; stroke-width: 1.5"/>
   </g>
   <g id="LineCollection_2">
    <path d="M 59.800419 64.002037 
L 59.800419 45.098107 
" clip-path="url(#pb197275ea8)" style="fill: none; stroke: #ff7f0e; stroke-width: 1.5"/>
    <path d="M 148.585984 54.926427 
L 148.585984 40.829175 
" clip-path="url(#pb197275ea8)" style="fill: none; stroke: #ff7f0e; stroke-width: 1.5"/>
    <path d="M 296.561925 50.784762 
L 296.561925 40.188754 
" clip-path="url(#pb197275ea8)" style="fill: none; stroke: #ff7f0e; stroke-width: 1.5"/>
   </g>
   <g id="LineCollection_3">
    <path d="M 59.800419 57.951968 
L 59.800419 42.88263 
" clip-path="url(#pb197275ea8)" style="fill: none; stroke: #2ca02c; stroke-width: 1.5"/>
    <path d="M 148.585984 45.810216 
L 148.585984 40.424318 
" clip-path="url(#pb197275ea8)" style="fill: none; stroke: #2ca02c; stroke-width: 1.5"/>
    <path d="M 296.561925 48.513145 
L 296.561925 38.786794 
" clip-path="url(#pb197275ea8)" style="fill: none; stroke: #2ca02c; stroke-width: 1.5"/>
   </g>
   <g id="LineCollection_4">
    <path d="M 59.800419 64.522641 
L 59.800419 51.57474 
" clip-path="url(#pb197275ea8)" style="fill: none; stroke: #d62728; stroke-width: 1.5"/>
    <path d="M 148.585984 49.781532 
L 148.585984 36.147166 
" clip-path="url(#pb197275ea8)" style="fill: none; stroke: #d62728; stroke-width: 1.5"/>
    <path d="M 296.561925 51.768577 
L 296.561925 38.997496 
" clip-path="url(#pb197275ea8)" style="fill: none; stroke: #d62728; stroke-width: 1.5"/>
   </g>
   <g id="LineCollection_5">
    <path d="M 59.800419 235.89049 
L 59.800419 180.426109 
" clip-path="url(#pb197275ea8)" style="fill: none; stroke: #9467bd; stroke-width: 1.5"/>
    <path d="M 148.585984 106.897195 
L 148.585984 72.069657 
" clip-path="url(#pb197275ea8)" style="fill: none; stroke: #9467bd; stroke-width: 1.5"/>
    <path d="M 296.561925 57.571813 
L 296.561925 45.028915 
" clip-path="url(#pb197275ea8)" style="fill: none; stroke: #9467bd; stroke-width: 1.5"/>
   </g>
   <g id="line2d_11">
    <path d="M 59.800419 165.096104 
L 148.585984 90.397321 
L 296.561925 58.573807 
" clip-path="url(#pb197275ea8)" style="fill: none; stroke: #1f77b4; stroke-width: 1.5; stroke-linecap: square"/>
    <defs>
     <path id="ma7e2f89ef6" d="M 0 3 
C 0.795609 3 1.55874 2.683901 2.12132 2.12132 
C 2.683901 1.55874 3 0.795609 3 0 
C 3 -0.795609 2.683901 -1.55874 2.12132 -2.12132 
C 1.55874 -2.683901 0.795609 -3 0 -3 
C -0.795609 -3 -1.55874 -2.683901 -2.12132 -2.12132 
C -2.683901 -1.55874 -3 -0.795609 -3 0 
C -3 0.795609 -2.683901 1.55874 -2.12132 2.12132 
C -1.55874 2.683901 -0.795609 3 0 3 
z
" style="stroke: #1f77b4"/>
    </defs>
    <g clip-path="url(#pb197275ea8)">
     <use xlink:href="#ma7e2f89ef6" x="59.800419" y="165.096104" style="fill: #1f77b4; stroke: #1f77b4"/>
     <use xlink:href="#ma7e2f89ef6" x="148.585984" y="90.397321" style="fill: #1f77b4; stroke: #1f77b4"/>
     <use xlink:href="#ma7e2f89ef6" x="296.561925" y="58.573807" style="fill: #1f77b4; stroke: #1f77b4"/>
    </g>
   </g>
   <g id="line2d_12">
    <path d="M 59.800419 54.550072 
L 148.585984 47.877801 
L 296.561925 45.486758 
" clip-path="url(#pb197275ea8)" style="fill: none; stroke: #ff7f0e; stroke-width: 1.5; stroke-linecap: square"/>
    <defs>
     <path id="m17250484f1" d="M 0 3 
C 0.795609 3 1.55874 2.683901 2.12132 2.12132 
C 2.683901 1.55874 3 0.795609 3 0 
C 3 -0.795609 2.683901 -1.55874 2.12132 -2.12132 
C 1.55874 -2.683901 0.795609 -3 0 -3 
C -0.795609 -3 -1.55874 -2.683901 -2.12132 -2.12132 
C -2.683901 -1.55874 -3 -0.795609 -3 0 
C -3 0.795609 -2.683901 1.55874 -2.12132 2.12132 
C -1.55874 2.683901 -0.795609 3 0 3 
z
" style="stroke: #ff7f0e"/>
    </defs>
    <g clip-path="url(#pb197275ea8)">
     <use xlink:href="#m17250484f1" x="59.800419" y="54.550072" style="fill: #ff7f0e; stroke: #ff7f0e"/>
     <use xlink:href="#m17250484f1" x="148.585984" y="47.877801" style="fill: #ff7f0e; stroke: #ff7f0e"/>
     <use xlink:href="#m17250484f1" x="296.561925" y="45.486758" style="fill: #ff7f0e; stroke: #ff7f0e"/>
    </g>
   </g>
   <g id="line2d_13">
    <path d="M 59.800419 50.417299 
L 148.585984 43.117267 
L 296.561925 43.649969 
" clip-path="url(#pb197275ea8)" style="fill: none; stroke: #2ca02c; stroke-width: 1.5; stroke-linecap: square"/>
    <defs>
     <path id="m3adaeaba01" d="M 0 3 
C 0.795609 3 1.55874 2.683901 2.12132 2.12132 
C 2.683901 1.55874 3 0.795609 3 0 
C 3 -0.795609 2.683901 -1.55874 2.12132 -2.12132 
C 1.55874 -2.683901 0.795609 -3 0 -3 
C -0.795609 -3 -1.55874 -2.683901 -2.12132 -2.12132 
C -2.683901 -1.55874 -3 -0.795609 -3 0 
C -3 0.795609 -2.683901 1.55874 -2.12132 2.12132 
C -1.55874 2.683901 -0.795609 3 0 3 
z
" style="stroke: #2ca02c"/>
    </defs>
    <g clip-path="url(#pb197275ea8)">
     <use xlink:href="#m3adaeaba01" x="59.800419" y="50.417299" style="fill: #2ca02c; stroke: #2ca02c"/>
     <use xlink:href="#m3adaeaba01" x="148.585984" y="43.117267" style="fill: #2ca02c; stroke: #2ca02c"/>
     <use xlink:href="#m3adaeaba01" x="296.561925" y="43.649969" style="fill: #2ca02c; stroke: #2ca02c"/>
    </g>
   </g>
   <g id="line2d_14">
    <path d="M 59.800419 58.048691 
L 148.585984 42.964349 
L 296.561925 45.383037 
" clip-path="url(#pb197275ea8)" style="fill: none; stroke: #d62728; stroke-width: 1.5; stroke-linecap: square"/>
    <defs>
     <path id="m488acc787f" d="M 0 3 
C 0.795609 3 1.55874 2.683901 2.12132 2.12132 
C 2.683901 1.55874 3 0.795609 3 0 
C 3 -0.795609 2.683901 -1.55874 2.12132 -2.12132 
C 1.55874 -2.683901 0.795609 -3 0 -3 
C -0.795609 -3 -1.55874 -2.683901 -2.12132 -2.12132 
C -2.683901 -1.55874 -3 -0.795609 -3 0 
C -3 0.795609 -2.683901 1.55874 -2.12132 2.12132 
C -1.55874 2.683901 -0.795609 3 0 3 
z
" style="stroke: #d62728"/>
    </defs>
    <g clip-path="url(#pb197275ea8)">
     <use xlink:href="#m488acc787f" x="59.800419" y="58.048691" style="fill: #d62728; stroke: #d62728"/>
     <use xlink:href="#m488acc787f" x="148.585984" y="42.964349" style="fill: #d62728; stroke: #d62728"/>
     <use xlink:href="#m488acc787f" x="296.561925" y="45.383037" style="fill: #d62728; stroke: #d62728"/>
    </g>
   </g>
   <g id="line2d_15">
    <path d="M 59.800419 208.1583 
L 148.585984 89.483426 
L 296.561925 51.300364 
" clip-path="url(#pb197275ea8)" style="fill: none; stroke: #9467bd; stroke-width: 1.5; stroke-linecap: square"/>
    <defs>
     <path id="m6bcb82a828" d="M 0 3 
C 0.795609 3 1.55874 2.683901 2.12132 2.12132 
C 2.683901 1.55874 3 0.795609 3 0 
C 3 -0.795609 2.683901 -1.55874 2.12132 -2.12132 
C 1.55874 -2.683901 0.795609 -3 0 -3 
C -0.795609 -3 -1.55874 -2.683901 -2.12132 -2.12132 
C -2.683901 -1.55874 -3 -0.795609 -3 0 
C -3 0.795609 -2.683901 1.55874 -2.12132 2.12132 
C -1.55874 2.683901 -0.795609 3 0 3 
z
" style="stroke: #9467bd"/>
    </defs>
    <g clip-path="url(#pb197275ea8)">
     <use xlink:href="#m6bcb82a828" x="59.800419" y="208.1583" style="fill: #9467bd; stroke: #9467bd"/>
     <use xlink:href="#m6bcb82a828" x="148.585984" y="89.483426" style="fill: #9467bd; stroke: #9467bd"/>
     <use xlink:href="#m6bcb82a828" x="296.561925" y="51.300364" style="fill: #9467bd; stroke: #9467bd"/>
    </g>
   </g>
   <g id="patch_3">
    <path d="M 47.962344 245.877656 
L 47.962344 26.16 
" style="fill: none; stroke: #000000; stroke-width: 0.8; stroke-linejoin: miter; stroke-linecap: square"/>
   </g>
   <g id="patch_4">
    <path d="M 308.4 245.877656 
L 308.4 26.16 
" style="fill: none; stroke: #000000; stroke-width: 0.8; stroke-linejoin: miter; stroke-linecap: square"/>
   </g>
   <g id="patch_5">
    <path d="M 47.962344 245.877656 
L 308.4 245.877656 
" style="fill: none; stroke: #000000; stroke-width: 0.8; stroke-linejoin: miter; stroke-linecap: square"/>
   </g>
   <g id="patch_6">
    <path d="M 47.962344 26.16 
L 308.4 26.16 
" style="fill: none; stroke: #000000; stroke-width: 0.8; stroke-linejoin: miter; stroke-linecap: square"/>
   </g>
   <g id="text_13">
    <!-- redundant -->
    <g transform="translate(147.100234 20.16) scale(0.12 -0.12)">
     <use xlink:href="#DejaVuSans-55"/>
     <use xlink:href="#DejaVuSans-48" transform="translate(38.90625 0)"/>
     <use xlink:href="#DejaVuSans-47" transform="translate(100.4375 0)"/>
     <use xlink:href="#DejaVuSans-58" transform="translate(163.921875 0)"/>
     <use xlink:href="#DejaVuSans-51" transform="translate(227.296875 0)"/>
     <use xlink:href="#DejaVuSans-47" transform="translate(290.671875 0)"/>
     <use xlink:href="#DejaVuSans-44" transform="translate(354.15625 0)"/>
     <use xlink:href="#DejaVuSans-51" transform="translate(415.4375 0)"/>
     <use xlink:href="#DejaVuSans-57" transform="translate(478.8125 0)"/>
    </g>
   </g>
  </g>
  <g id="axes_2">
   <g id="patch_7">
    <path d="M 356.362344 245.877656 
L 616.8 245.877656 
L 616.8 26.16 
L 356.362344 26.16 
z
" style="fill: #ffffff"/>
   </g>
   <g id="matplotlib.axis_3">
    <g id="xtick_6">
     <g id="line2d_16">
      <g>
       <use xlink:href="#m2dcdbf24ba" x="368.200419" y="245.877656" style="stroke: #000000; stroke-width: 0.8"/>
      </g>
     </g>
     <g id="text_14">
      <!-- 0.1 -->
      <g transform="translate(360.248857 260.475312) scale(0.1 -0.1)">
       <use xlink:href="#DejaVuSans-13"/>
       <use xlink:href="#DejaVuSans-11" transform="translate(63.625 0)"/>
       <use xlink:href="#DejaVuSans-14" transform="translate(95.40625 0)"/>
      </g>
     </g>
    </g>
    <g id="xtick_7">
     <g id="line2d_17">
      <g>
       <use xlink:href="#m2dcdbf24ba" x="427.390795" y="245.877656" style="stroke: #000000; stroke-width: 0.8"/>
      </g>
     </g>
     <g id="text_15">
      <!-- 0.2 -->
      <g transform="translate(419.439233 260.475312) scale(0.1 -0.1)">
       <use xlink:href="#DejaVuSans-13"/>
       <use xlink:href="#DejaVuSans-11" transform="translate(63.625 0)"/>
       <use xlink:href="#DejaVuSans-15" transform="translate(95.40625 0)"/>
      </g>
     </g>
    </g>
    <g id="xtick_8">
     <g id="line2d_18">
      <g>
       <use xlink:href="#m2dcdbf24ba" x="486.581172" y="245.877656" style="stroke: #000000; stroke-width: 0.8"/>
      </g>
     </g>
     <g id="text_16">
      <!-- 0.3 -->
      <g transform="translate(478.629609 260.475312) scale(0.1 -0.1)">
       <use xlink:href="#DejaVuSans-13"/>
       <use xlink:href="#DejaVuSans-11" transform="translate(63.625 0)"/>
       <use xlink:href="#DejaVuSans-16" transform="translate(95.40625 0)"/>
      </g>
     </g>
    </g>
    <g id="xtick_9">
     <g id="line2d_19">
      <g>
       <use xlink:href="#m2dcdbf24ba" x="545.771548" y="245.877656" style="stroke: #000000; stroke-width: 0.8"/>
      </g>
     </g>
     <g id="text_17">
      <!-- 0.4 -->
      <g transform="translate(537.819986 260.475312) scale(0.1 -0.1)">
       <use xlink:href="#DejaVuSans-13"/>
       <use xlink:href="#DejaVuSans-11" transform="translate(63.625 0)"/>
       <use xlink:href="#DejaVuSans-17" transform="translate(95.40625 0)"/>
      </g>
     </g>
    </g>
    <g id="xtick_10">
     <g id="line2d_20">
      <g>
       <use xlink:href="#m2dcdbf24ba" x="604.961925" y="245.877656" style="stroke: #000000; stroke-width: 0.8"/>
      </g>
     </g>
     <g id="text_18">
      <!-- 0.5 -->
      <g transform="translate(597.010362 260.475312) scale(0.1 -0.1)">
       <use xlink:href="#DejaVuSans-13"/>
       <use xlink:href="#DejaVuSans-11" transform="translate(63.625 0)"/>
       <use xlink:href="#DejaVuSans-18" transform="translate(95.40625 0)"/>
      </g>
     </g>
    </g>
    <g id="text_19">
     <!-- Maximum byte budget ratio -->
     <g transform="translate(416.751484 274.476094) scale(0.1 -0.1)">
      <use xlink:href="#DejaVuSans-30"/>
      <use xlink:href="#DejaVuSans-44" transform="translate(86.28125 0)"/>
      <use xlink:href="#DejaVuSans-5b" transform="translate(147.5625 0)"/>
      <use xlink:href="#DejaVuSans-4c" transform="translate(206.75 0)"/>
      <use xlink:href="#DejaVuSans-50" transform="translate(234.53125 0)"/>
      <use xlink:href="#DejaVuSans-58" transform="translate(331.9375 0)"/>
      <use xlink:href="#DejaVuSans-50" transform="translate(395.3125 0)"/>
      <use xlink:href="#DejaVuSans-3" transform="translate(492.71875 0)"/>
      <use xlink:href="#DejaVuSans-45" transform="translate(524.5 0)"/>
      <use xlink:href="#DejaVuSans-5c" transform="translate(587.984375 0)"/>
      <use xlink:href="#DejaVuSans-57" transform="translate(647.171875 0)"/>
      <use xlink:href="#DejaVuSans-48" transform="translate(686.375 0)"/>
      <use xlink:href="#DejaVuSans-3" transform="translate(747.90625 0)"/>
      <use xlink:href="#DejaVuSans-45" transform="translate(779.6875 0)"/>
      <use xlink:href="#DejaVuSans-58" transform="translate(843.171875 0)"/>
      <use xlink:href="#DejaVuSans-47" transform="translate(906.546875 0)"/>
      <use xlink:href="#DejaVuSans-4a" transform="translate(970.03125 0)"/>
      <use xlink:href="#DejaVuSans-48" transform="translate(1033.515625 0)"/>
      <use xlink:href="#DejaVuSans-57" transform="translate(1095.046875 0)"/>
      <use xlink:href="#DejaVuSans-3" transform="translate(1134.25 0)"/>
      <use xlink:href="#DejaVuSans-55" transform="translate(1166.03125 0)"/>
      <use xlink:href="#DejaVuSans-44" transform="translate(1207.140625 0)"/>
      <use xlink:href="#DejaVuSans-57" transform="translate(1268.421875 0)"/>
      <use xlink:href="#DejaVuSans-4c" transform="translate(1307.625 0)"/>
      <use xlink:href="#DejaVuSans-52" transform="translate(1335.40625 0)"/>
     </g>
    </g>
   </g>
   <g id="matplotlib.axis_4">
    <g id="ytick_6">
     <g id="line2d_21">
      <g>
       <use xlink:href="#m22bc83458c" x="356.362344" y="240.143662" style="stroke: #000000; stroke-width: 0.8"/>
      </g>
     </g>
     <g id="text_20">
      <!-- 0.4 -->
      <g transform="translate(333.459219 243.94249) scale(0.1 -0.1)">
       <use xlink:href="#DejaVuSans-13"/>
       <use xlink:href="#DejaVuSans-11" transform="translate(63.625 0)"/>
       <use xlink:href="#DejaVuSans-17" transform="translate(95.40625 0)"/>
      </g>
     </g>
    </g>
    <g id="ytick_7">
     <g id="line2d_22">
      <g>
       <use xlink:href="#m22bc83458c" x="356.362344" y="201.866042" style="stroke: #000000; stroke-width: 0.8"/>
      </g>
     </g>
     <g id="text_21">
      <!-- 0.5 -->
      <g transform="translate(333.459219 205.66487) scale(0.1 -0.1)">
       <use xlink:href="#DejaVuSans-13"/>
       <use xlink:href="#DejaVuSans-11" transform="translate(63.625 0)"/>
       <use xlink:href="#DejaVuSans-18" transform="translate(95.40625 0)"/>
      </g>
     </g>
    </g>
    <g id="ytick_8">
     <g id="line2d_23">
      <g>
       <use xlink:href="#m22bc83458c" x="356.362344" y="163.588423" style="stroke: #000000; stroke-width: 0.8"/>
      </g>
     </g>
     <g id="text_22">
      <!-- 0.6 -->
      <g transform="translate(333.459219 167.387251) scale(0.1 -0.1)">
       <use xlink:href="#DejaVuSans-13"/>
       <use xlink:href="#DejaVuSans-11" transform="translate(63.625 0)"/>
       <use xlink:href="#DejaVuSans-19" transform="translate(95.40625 0)"/>
      </g>
     </g>
    </g>
    <g id="ytick_9">
     <g id="line2d_24">
      <g>
       <use xlink:href="#m22bc83458c" x="356.362344" y="125.310803" style="stroke: #000000; stroke-width: 0.8"/>
      </g>
     </g>
     <g id="text_23">
      <!-- 0.7 -->
      <g transform="translate(333.459219 129.109632) scale(0.1 -0.1)">
       <use xlink:href="#DejaVuSans-13"/>
       <use xlink:href="#DejaVuSans-11" transform="translate(63.625 0)"/>
       <use xlink:href="#DejaVuSans-1a" transform="translate(95.40625 0)"/>
      </g>
     </g>
    </g>
    <g id="ytick_10">
     <g id="line2d_25">
      <g>
       <use xlink:href="#m22bc83458c" x="356.362344" y="87.033184" style="stroke: #000000; stroke-width: 0.8"/>
      </g>
     </g>
     <g id="text_24">
      <!-- 0.8 -->
      <g transform="translate(333.459219 90.832012) scale(0.1 -0.1)">
       <use xlink:href="#DejaVuSans-13"/>
       <use xlink:href="#DejaVuSans-11" transform="translate(63.625 0)"/>
       <use xlink:href="#DejaVuSans-1b" transform="translate(95.40625 0)"/>
      </g>
     </g>
    </g>
    <g id="ytick_11">
     <g id="line2d_26">
      <g>
       <use xlink:href="#m22bc83458c" x="356.362344" y="48.755565" style="stroke: #000000; stroke-width: 0.8"/>
      </g>
     </g>
     <g id="text_25">
      <!-- 0.9 -->
      <g transform="translate(333.459219 52.554393) scale(0.1 -0.1)">
       <use xlink:href="#DejaVuSans-13"/>
       <use xlink:href="#DejaVuSans-11" transform="translate(63.625 0)"/>
       <use xlink:href="#DejaVuSans-1c" transform="translate(95.40625 0)"/>
      </g>
     </g>
    </g>
    <g id="text_26">
     <!-- Macro F1 (mean +/- SD) -->
     <g transform="translate(327.056875 196.347734) rotate(-90) scale(0.1 -0.1)">
      <use xlink:href="#DejaVuSans-30"/>
      <use xlink:href="#DejaVuSans-44" transform="translate(86.28125 0)"/>
      <use xlink:href="#DejaVuSans-46" transform="translate(147.5625 0)"/>
      <use xlink:href="#DejaVuSans-55" transform="translate(202.546875 0)"/>
      <use xlink:href="#DejaVuSans-52" transform="translate(241.453125 0)"/>
      <use xlink:href="#DejaVuSans-3" transform="translate(302.640625 0)"/>
      <use xlink:href="#DejaVuSans-29" transform="translate(334.421875 0)"/>
      <use xlink:href="#DejaVuSans-14" transform="translate(391.9375 0)"/>
      <use xlink:href="#DejaVuSans-3" transform="translate(455.5625 0)"/>
      <use xlink:href="#DejaVuSans-b" transform="translate(487.34375 0)"/>
      <use xlink:href="#DejaVuSans-50" transform="translate(526.359375 0)"/>
      <use xlink:href="#DejaVuSans-48" transform="translate(623.765625 0)"/>
      <use xlink:href="#DejaVuSans-44" transform="translate(685.296875 0)"/>
      <use xlink:href="#DejaVuSans-51" transform="translate(746.578125 0)"/>
      <use xlink:href="#DejaVuSans-3" transform="translate(809.953125 0)"/>
      <use xlink:href="#DejaVuSans-e" transform="translate(841.734375 0)"/>
      <use xlink:href="#DejaVuSans-12" transform="translate(925.53125 0)"/>
      <use xlink:href="#DejaVuSans-10" transform="translate(959.21875 0)"/>
      <use xlink:href="#DejaVuSans-3" transform="translate(995.296875 0)"/>
      <use xlink:href="#DejaVuSans-36" transform="translate(1027.078125 0)"/>
      <use xlink:href="#DejaVuSans-27" transform="translate(1090.5625 0)"/>
      <use xlink:href="#DejaVuSans-c" transform="translate(1167.5625 0)"/>
     </g>
    </g>
   </g>
   <g id="LineCollection_6">
    <path d="M 368.200419 235.89049 
L 368.200419 161.76179 
" clip-path="url(#p5cb5013551)" style="fill: none; stroke: #1f77b4; stroke-width: 1.5"/>
    <path d="M 456.985984 155.16136 
L 456.985984 101.090963 
" clip-path="url(#p5cb5013551)" style="fill: none; stroke: #1f77b4; stroke-width: 1.5"/>
    <path d="M 604.961925 111.444668 
L 604.961925 67.333657 
" clip-path="url(#p5cb5013551)" style="fill: none; stroke: #1f77b4; stroke-width: 1.5"/>
   </g>
   <g id="LineCollection_7">
    <path d="M 368.200419 87.247162 
L 368.200419 53.423338 
" clip-path="url(#p5cb5013551)" style="fill: none; stroke: #ff7f0e; stroke-width: 1.5"/>
    <path d="M 456.985984 56.47657 
L 456.985984 36.147166 
" clip-path="url(#p5cb5013551)" style="fill: none; stroke: #ff7f0e; stroke-width: 1.5"/>
    <path d="M 604.961925 53.336338 
L 604.961925 41.271916 
" clip-path="url(#p5cb5013551)" style="fill: none; stroke: #ff7f0e; stroke-width: 1.5"/>
   </g>
   <g id="LineCollection_8">
    <path d="M 368.200419 57.303241 
L 368.200419 44.378154 
" clip-path="url(#p5cb5013551)" style="fill: none; stroke: #2ca02c; stroke-width: 1.5"/>
    <path d="M 456.985984 46.630762 
L 456.985984 41.556923 
" clip-path="url(#p5cb5013551)" style="fill: none; stroke: #2ca02c; stroke-width: 1.5"/>
    <path d="M 604.961925 46.421992 
L 604.961925 39.691698 
" clip-path="url(#p5cb5013551)" style="fill: none; stroke: #2ca02c; stroke-width: 1.5"/>
   </g>
   <g id="LineCollection_9">
    <path d="M 368.200419 61.89563 
L 368.200419 50.536993 
" clip-path="url(#p5cb5013551)" style="fill: none; stroke: #d62728; stroke-width: 1.5"/>
    <path d="M 456.985984 48.292829 
L 456.985984 40.084178 
" clip-path="url(#p5cb5013551)" style="fill: none; stroke: #d62728; stroke-width: 1.5"/>
    <path d="M 604.961925 48.982169 
L 604.961925 40.955644 
" clip-path="url(#p5cb5013551)" style="fill: none; stroke: #d62728; stroke-width: 1.5"/>
   </g>
   <g id="LineCollection_10">
    <path d="M 368.200419 218.736529 
L 368.200419 163.140946 
" clip-path="url(#p5cb5013551)" style="fill: none; stroke: #9467bd; stroke-width: 1.5"/>
    <path d="M 456.985984 180.827009 
L 456.985984 131.598836 
" clip-path="url(#p5cb5013551)" style="fill: none; stroke: #9467bd; stroke-width: 1.5"/>
    <path d="M 604.961925 101.20161 
L 604.961925 59.174871 
" clip-path="url(#p5cb5013551)" style="fill: none; stroke: #9467bd; stroke-width: 1.5"/>
   </g>
   <g id="line2d_27">
    <path d="M 368.200419 198.82614 
L 456.985984 128.126162 
L 604.961925 89.389162 
" clip-path="url(#p5cb5013551)" style="fill: none; stroke: #1f77b4; stroke-width: 1.5; stroke-linecap: square"/>
    <g clip-path="url(#p5cb5013551)">
     <use xlink:href="#ma7e2f89ef6" x="368.200419" y="198.82614" style="fill: #1f77b4; stroke: #1f77b4"/>
     <use xlink:href="#ma7e2f89ef6" x="456.985984" y="128.126162" style="fill: #1f77b4; stroke: #1f77b4"/>
     <use xlink:href="#ma7e2f89ef6" x="604.961925" y="89.389162" style="fill: #1f77b4; stroke: #1f77b4"/>
    </g>
   </g>
   <g id="line2d_28">
    <path d="M 368.200419 70.33525 
L 456.985984 46.311868 
L 604.961925 47.304127 
" clip-path="url(#p5cb5013551)" style="fill: none; stroke: #ff7f0e; stroke-width: 1.5; stroke-linecap: square"/>
    <g clip-path="url(#p5cb5013551)">
     <use xlink:href="#m17250484f1" x="368.200419" y="70.33525" style="fill: #ff7f0e; stroke: #ff7f0e"/>
     <use xlink:href="#m17250484f1" x="456.985984" y="46.311868" style="fill: #ff7f0e; stroke: #ff7f0e"/>
     <use xlink:href="#m17250484f1" x="604.961925" y="47.304127" style="fill: #ff7f0e; stroke: #ff7f0e"/>
    </g>
   </g>
   <g id="line2d_29">
    <path d="M 368.200419 50.840698 
L 456.985984 44.093843 
L 604.961925 43.056845 
" clip-path="url(#p5cb5013551)" style="fill: none; stroke: #2ca02c; stroke-width: 1.5; stroke-linecap: square"/>
    <g clip-path="url(#p5cb5013551)">
     <use xlink:href="#m3adaeaba01" x="368.200419" y="50.840698" style="fill: #2ca02c; stroke: #2ca02c"/>
     <use xlink:href="#m3adaeaba01" x="456.985984" y="44.093843" style="fill: #2ca02c; stroke: #2ca02c"/>
     <use xlink:href="#m3adaeaba01" x="604.961925" y="43.056845" style="fill: #2ca02c; stroke: #2ca02c"/>
    </g>
   </g>
   <g id="line2d_30">
    <path d="M 368.200419 56.216311 
L 456.985984 44.188503 
L 604.961925 44.968907 
" clip-path="url(#p5cb5013551)" style="fill: none; stroke: #d62728; stroke-width: 1.5; stroke-linecap: square"/>
    <g clip-path="url(#p5cb5013551)">
     <use xlink:href="#m488acc787f" x="368.200419" y="56.216311" style="fill: #d62728; stroke: #d62728"/>
     <use xlink:href="#m488acc787f" x="456.985984" y="44.188503" style="fill: #d62728; stroke: #d62728"/>
     <use xlink:href="#m488acc787f" x="604.961925" y="44.968907" style="fill: #d62728; stroke: #d62728"/>
    </g>
   </g>
   <g id="line2d_31">
    <path d="M 368.200419 190.938738 
L 456.985984 156.212922 
L 604.961925 80.18824 
" clip-path="url(#p5cb5013551)" style="fill: none; stroke: #9467bd; stroke-width: 1.5; stroke-linecap: square"/>
    <g clip-path="url(#p5cb5013551)">
     <use xlink:href="#m6bcb82a828" x="368.200419" y="190.938738" style="fill: #9467bd; stroke: #9467bd"/>
     <use xlink:href="#m6bcb82a828" x="456.985984" y="156.212922" style="fill: #9467bd; stroke: #9467bd"/>
     <use xlink:href="#m6bcb82a828" x="604.961925" y="80.18824" style="fill: #9467bd; stroke: #9467bd"/>
    </g>
   </g>
   <g id="patch_8">
    <path d="M 356.362344 245.877656 
L 356.362344 26.16 
" style="fill: none; stroke: #000000; stroke-width: 0.8; stroke-linejoin: miter; stroke-linecap: square"/>
   </g>
   <g id="patch_9">
    <path d="M 616.8 245.877656 
L 616.8 26.16 
" style="fill: none; stroke: #000000; stroke-width: 0.8; stroke-linejoin: miter; stroke-linecap: square"/>
   </g>
   <g id="patch_10">
    <path d="M 356.362344 245.877656 
L 616.8 245.877656 
" style="fill: none; stroke: #000000; stroke-width: 0.8; stroke-linejoin: miter; stroke-linecap: square"/>
   </g>
   <g id="patch_11">
    <path d="M 356.362344 26.16 
L 616.8 26.16 
" style="fill: none; stroke: #000000; stroke-width: 0.8; stroke-linejoin: miter; stroke-linecap: square"/>
   </g>
   <g id="text_27">
    <!-- sensor_shift -->
    <g transform="translate(450.743359 20.16) scale(0.12 -0.12)">
     <defs>
      <path id="DejaVuSans-56" d="M 2834 3397 
L 2834 2853 
Q 2591 2978 2328 3040 
Q 2066 3103 1784 3103 
Q 1356 3103 1142 2972 
Q 928 2841 928 2578 
Q 928 2378 1081 2264 
Q 1234 2150 1697 2047 
L 1894 2003 
Q 2506 1872 2764 1633 
Q 3022 1394 3022 966 
Q 3022 478 2636 193 
Q 2250 -91 1575 -91 
Q 1294 -91 989 -36 
Q 684 19 347 128 
L 347 722 
Q 666 556 975 473 
Q 1284 391 1588 391 
Q 1994 391 2212 530 
Q 2431 669 2431 922 
Q 2431 1156 2273 1281 
Q 2116 1406 1581 1522 
L 1381 1569 
Q 847 1681 609 1914 
Q 372 2147 372 2553 
Q 372 3047 722 3315 
Q 1072 3584 1716 3584 
Q 2034 3584 2315 3537 
Q 2597 3491 2834 3397 
z
" transform="scale(0.015625)"/>
      <path id="DejaVuSans-42" d="M 3263 -1063 
L 3263 -1509 
L -63 -1509 
L -63 -1063 
L 3263 -1063 
z
" transform="scale(0.015625)"/>
      <path id="DejaVuSans-4b" d="M 3513 2113 
L 3513 0 
L 2938 0 
L 2938 2094 
Q 2938 2591 2744 2837 
Q 2550 3084 2163 3084 
Q 1697 3084 1428 2787 
Q 1159 2491 1159 1978 
L 1159 0 
L 581 0 
L 581 4863 
L 1159 4863 
L 1159 2956 
Q 1366 3272 1645 3428 
Q 1925 3584 2291 3584 
Q 2894 3584 3203 3211 
Q 3513 2838 3513 2113 
z
" transform="scale(0.015625)"/>
      <path id="DejaVuSans-49" d="M 2375 4863 
L 2375 4384 
L 1825 4384 
Q 1516 4384 1395 4259 
Q 1275 4134 1275 3809 
L 1275 3500 
L 2222 3500 
L 2222 3053 
L 1275 3053 
L 1275 0 
L 697 0 
L 697 3053 
L 147 3053 
L 147 3500 
L 697 3500 
L 697 3744 
Q 697 4328 969 4595 
Q 1241 4863 1831 4863 
L 2375 4863 
z
" transform="scale(0.015625)"/>
     </defs>
     <use xlink:href="#DejaVuSans-56"/>
     <use xlink:href="#DejaVuSans-48" transform="translate(52.09375 0)"/>
     <use xlink:href="#DejaVuSans-51" transform="translate(113.625 0)"/>
     <use xlink:href="#DejaVuSans-56" transform="translate(177 0)"/>
     <use xlink:href="#DejaVuSans-52" transform="translate(229.09375 0)"/>
     <use xlink:href="#DejaVuSans-55" transform="translate(290.28125 0)"/>
     <use xlink:href="#DejaVuSans-42" transform="translate(331.390625 0)"/>
     <use xlink:href="#DejaVuSans-56" transform="translate(381.390625 0)"/>
     <use xlink:href="#DejaVuSans-4b" transform="translate(433.484375 0)"/>
     <use xlink:href="#DejaVuSans-4c" transform="translate(496.859375 0)"/>
     <use xlink:href="#DejaVuSans-49" transform="translate(524.640625 0)"/>
     <use xlink:href="#DejaVuSans-57" transform="translate(558.09375 0)"/>
    </g>
   </g>
  </g>
  <g id="axes_3">
   <g id="patch_12">
    <path d="M 664.762344 245.877656 
L 925.2 245.877656 
L 925.2 26.16 
L 664.762344 26.16 
z
" style="fill: #ffffff"/>
   </g>
   <g id="matplotlib.axis_5">
    <g id="xtick_11">
     <g id="line2d_32">
      <g>
       <use xlink:href="#m2dcdbf24ba" x="676.600419" y="245.877656" style="stroke: #000000; stroke-width: 0.8"/>
      </g>
     </g>
     <g id="text_28">
      <!-- 0.1 -->
      <g transform="translate(668.648857 260.475312) scale(0.1 -0.1)">
       <use xlink:href="#DejaVuSans-13"/>
       <use xlink:href="#DejaVuSans-11" transform="translate(63.625 0)"/>
       <use xlink:href="#DejaVuSans-14" transform="translate(95.40625 0)"/>
      </g>
     </g>
    </g>
    <g id="xtick_12">
     <g id="line2d_33">
      <g>
       <use xlink:href="#m2dcdbf24ba" x="735.790795" y="245.877656" style="stroke: #000000; stroke-width: 0.8"/>
      </g>
     </g>
     <g id="text_29">
      <!-- 0.2 -->
      <g transform="translate(727.839233 260.475312) scale(0.1 -0.1)">
       <use xlink:href="#DejaVuSans-13"/>
       <use xlink:href="#DejaVuSans-11" transform="translate(63.625 0)"/>
       <use xlink:href="#DejaVuSans-15" transform="translate(95.40625 0)"/>
      </g>
     </g>
    </g>
    <g id="xtick_13">
     <g id="line2d_34">
      <g>
       <use xlink:href="#m2dcdbf24ba" x="794.981172" y="245.877656" style="stroke: #000000; stroke-width: 0.8"/>
      </g>
     </g>
     <g id="text_30">
      <!-- 0.3 -->
      <g transform="translate(787.029609 260.475312) scale(0.1 -0.1)">
       <use xlink:href="#DejaVuSans-13"/>
       <use xlink:href="#DejaVuSans-11" transform="translate(63.625 0)"/>
       <use xlink:href="#DejaVuSans-16" transform="translate(95.40625 0)"/>
      </g>
     </g>
    </g>
    <g id="xtick_14">
     <g id="line2d_35">
      <g>
       <use xlink:href="#m2dcdbf24ba" x="854.171548" y="245.877656" style="stroke: #000000; stroke-width: 0.8"/>
      </g>
     </g>
     <g id="text_31">
      <!-- 0.4 -->
      <g transform="translate(846.219986 260.475312) scale(0.1 -0.1)">
       <use xlink:href="#DejaVuSans-13"/>
       <use xlink:href="#DejaVuSans-11" transform="translate(63.625 0)"/>
       <use xlink:href="#DejaVuSans-17" transform="translate(95.40625 0)"/>
      </g>
     </g>
    </g>
    <g id="xtick_15">
     <g id="line2d_36">
      <g>
       <use xlink:href="#m2dcdbf24ba" x="913.361925" y="245.877656" style="stroke: #000000; stroke-width: 0.8"/>
      </g>
     </g>
     <g id="text_32">
      <!-- 0.5 -->
      <g transform="translate(905.410362 260.475312) scale(0.1 -0.1)">
       <use xlink:href="#DejaVuSans-13"/>
       <use xlink:href="#DejaVuSans-11" transform="translate(63.625 0)"/>
       <use xlink:href="#DejaVuSans-18" transform="translate(95.40625 0)"/>
      </g>
     </g>
    </g>
    <g id="text_33">
     <!-- Maximum byte budget ratio -->
     <g transform="translate(725.151484 274.476094) scale(0.1 -0.1)">
      <use xlink:href="#DejaVuSans-30"/>
      <use xlink:href="#DejaVuSans-44" transform="translate(86.28125 0)"/>
      <use xlink:href="#DejaVuSans-5b" transform="translate(147.5625 0)"/>
      <use xlink:href="#DejaVuSans-4c" transform="translate(206.75 0)"/>
      <use xlink:href="#DejaVuSans-50" transform="translate(234.53125 0)"/>
      <use xlink:href="#DejaVuSans-58" transform="translate(331.9375 0)"/>
      <use xlink:href="#DejaVuSans-50" transform="translate(395.3125 0)"/>
      <use xlink:href="#DejaVuSans-3" transform="translate(492.71875 0)"/>
      <use xlink:href="#DejaVuSans-45" transform="translate(524.5 0)"/>
      <use xlink:href="#DejaVuSans-5c" transform="translate(587.984375 0)"/>
      <use xlink:href="#DejaVuSans-57" transform="translate(647.171875 0)"/>
      <use xlink:href="#DejaVuSans-48" transform="translate(686.375 0)"/>
      <use xlink:href="#DejaVuSans-3" transform="translate(747.90625 0)"/>
      <use xlink:href="#DejaVuSans-45" transform="translate(779.6875 0)"/>
      <use xlink:href="#DejaVuSans-58" transform="translate(843.171875 0)"/>
      <use xlink:href="#DejaVuSans-47" transform="translate(906.546875 0)"/>
      <use xlink:href="#DejaVuSans-4a" transform="translate(970.03125 0)"/>
      <use xlink:href="#DejaVuSans-48" transform="translate(1033.515625 0)"/>
      <use xlink:href="#DejaVuSans-57" transform="translate(1095.046875 0)"/>
      <use xlink:href="#DejaVuSans-3" transform="translate(1134.25 0)"/>
      <use xlink:href="#DejaVuSans-55" transform="translate(1166.03125 0)"/>
      <use xlink:href="#DejaVuSans-44" transform="translate(1207.140625 0)"/>
      <use xlink:href="#DejaVuSans-57" transform="translate(1268.421875 0)"/>
      <use xlink:href="#DejaVuSans-4c" transform="translate(1307.625 0)"/>
      <use xlink:href="#DejaVuSans-52" transform="translate(1335.40625 0)"/>
     </g>
    </g>
   </g>
   <g id="matplotlib.axis_6">
    <g id="ytick_12">
     <g id="line2d_37">
      <g>
       <use xlink:href="#m22bc83458c" x="664.762344" y="224.293083" style="stroke: #000000; stroke-width: 0.8"/>
      </g>
     </g>
     <g id="text_34">
      <!-- 0.5 -->
      <g transform="translate(641.859219 228.091911) scale(0.1 -0.1)">
       <use xlink:href="#DejaVuSans-13"/>
       <use xlink:href="#DejaVuSans-11" transform="translate(63.625 0)"/>
       <use xlink:href="#DejaVuSans-18" transform="translate(95.40625 0)"/>
      </g>
     </g>
    </g>
    <g id="ytick_13">
     <g id="line2d_38">
      <g>
       <use xlink:href="#m22bc83458c" x="664.762344" y="180.063881" style="stroke: #000000; stroke-width: 0.8"/>
      </g>
     </g>
     <g id="text_35">
      <!-- 0.6 -->
      <g transform="translate(641.859219 183.862709) scale(0.1 -0.1)">
       <use xlink:href="#DejaVuSans-13"/>
       <use xlink:href="#DejaVuSans-11" transform="translate(63.625 0)"/>
       <use xlink:href="#DejaVuSans-19" transform="translate(95.40625 0)"/>
      </g>
     </g>
    </g>
    <g id="ytick_14">
     <g id="line2d_39">
      <g>
       <use xlink:href="#m22bc83458c" x="664.762344" y="135.834679" style="stroke: #000000; stroke-width: 0.8"/>
      </g>
     </g>
     <g id="text_36">
      <!-- 0.7 -->
      <g transform="translate(641.859219 139.633507) scale(0.1 -0.1)">
       <use xlink:href="#DejaVuSans-13"/>
       <use xlink:href="#DejaVuSans-11" transform="translate(63.625 0)"/>
       <use xlink:href="#DejaVuSans-1a" transform="translate(95.40625 0)"/>
      </g>
     </g>
    </g>
    <g id="ytick_15">
     <g id="line2d_40">
      <g>
       <use xlink:href="#m22bc83458c" x="664.762344" y="91.605478" style="stroke: #000000; stroke-width: 0.8"/>
      </g>
     </g>
     <g id="text_37">
      <!-- 0.8 -->
      <g transform="translate(641.859219 95.404306) scale(0.1 -0.1)">
       <use xlink:href="#DejaVuSans-13"/>
       <use xlink:href="#DejaVuSans-11" transform="translate(63.625 0)"/>
       <use xlink:href="#DejaVuSans-1b" transform="translate(95.40625 0)"/>
      </g>
     </g>
    </g>
    <g id="ytick_16">
     <g id="line2d_41">
      <g>
       <use xlink:href="#m22bc83458c" x="664.762344" y="47.376276" style="stroke: #000000; stroke-width: 0.8"/>
      </g>
     </g>
     <g id="text_38">
      <!-- 0.9 -->
      <g transform="translate(641.859219 51.175104) scale(0.1 -0.1)">
       <use xlink:href="#DejaVuSans-13"/>
       <use xlink:href="#DejaVuSans-11" transform="translate(63.625 0)"/>
       <use xlink:href="#DejaVuSans-1c" transform="translate(95.40625 0)"/>
      </g>
     </g>
    </g>
    <g id="text_39">
     <!-- Macro F1 (mean +/- SD) -->
     <g transform="translate(635.456875 196.347734) rotate(-90) scale(0.1 -0.1)">
      <use xlink:href="#DejaVuSans-30"/>
      <use xlink:href="#DejaVuSans-44" transform="translate(86.28125 0)"/>
      <use xlink:href="#DejaVuSans-46" transform="translate(147.5625 0)"/>
      <use xlink:href="#DejaVuSans-55" transform="translate(202.546875 0)"/>
      <use xlink:href="#DejaVuSans-52" transform="translate(241.453125 0)"/>
      <use xlink:href="#DejaVuSans-3" transform="translate(302.640625 0)"/>
      <use xlink:href="#DejaVuSans-29" transform="translate(334.421875 0)"/>
      <use xlink:href="#DejaVuSans-14" transform="translate(391.9375 0)"/>
      <use xlink:href="#DejaVuSans-3" transform="translate(455.5625 0)"/>
      <use xlink:href="#DejaVuSans-b" transform="translate(487.34375 0)"/>
      <use xlink:href="#DejaVuSans-50" transform="translate(526.359375 0)"/>
      <use xlink:href="#DejaVuSans-48" transform="translate(623.765625 0)"/>
      <use xlink:href="#DejaVuSans-44" transform="translate(685.296875 0)"/>
      <use xlink:href="#DejaVuSans-51" transform="translate(746.578125 0)"/>
      <use xlink:href="#DejaVuSans-3" transform="translate(809.953125 0)"/>
      <use xlink:href="#DejaVuSans-e" transform="translate(841.734375 0)"/>
      <use xlink:href="#DejaVuSans-12" transform="translate(925.53125 0)"/>
      <use xlink:href="#DejaVuSans-10" transform="translate(959.21875 0)"/>
      <use xlink:href="#DejaVuSans-3" transform="translate(995.296875 0)"/>
      <use xlink:href="#DejaVuSans-36" transform="translate(1027.078125 0)"/>
      <use xlink:href="#DejaVuSans-27" transform="translate(1090.5625 0)"/>
      <use xlink:href="#DejaVuSans-c" transform="translate(1167.5625 0)"/>
     </g>
    </g>
   </g>
   <g id="LineCollection_11">
    <path d="M 676.600419 214.810775 
L 676.600419 157.747302 
" clip-path="url(#pf6183e542f)" style="fill: none; stroke: #1f77b4; stroke-width: 1.5"/>
    <path d="M 765.385984 133.642803 
L 765.385984 46.729066 
" clip-path="url(#pf6183e542f)" style="fill: none; stroke: #1f77b4; stroke-width: 1.5"/>
    <path d="M 913.361925 69.136195 
L 913.361925 49.898551 
" clip-path="url(#pf6183e542f)" style="fill: none; stroke: #1f77b4; stroke-width: 1.5"/>
   </g>
   <g id="LineCollection_12">
    <path d="M 676.600419 104.046419 
L 676.600419 69.590297 
" clip-path="url(#pf6183e542f)" style="fill: none; stroke: #ff7f0e; stroke-width: 1.5"/>
    <path d="M 765.385984 67.202446 
L 765.385984 46.539411 
" clip-path="url(#pf6183e542f)" style="fill: none; stroke: #ff7f0e; stroke-width: 1.5"/>
    <path d="M 913.361925 56.290605 
L 913.361925 36.147166 
" clip-path="url(#pf6183e542f)" style="fill: none; stroke: #ff7f0e; stroke-width: 1.5"/>
   </g>
   <g id="LineCollection_13">
    <path d="M 676.600419 114.96104 
L 676.600419 63.25356 
" clip-path="url(#pf6183e542f)" style="fill: none; stroke: #2ca02c; stroke-width: 1.5"/>
    <path d="M 765.385984 57.410519 
L 765.385984 44.967682 
" clip-path="url(#pf6183e542f)" style="fill: none; stroke: #2ca02c; stroke-width: 1.5"/>
    <path d="M 913.361925 57.533477 
L 913.361925 42.69623 
" clip-path="url(#pf6183e542f)" style="fill: none; stroke: #2ca02c; stroke-width: 1.5"/>
   </g>
   <g id="LineCollection_14">
    <path d="M 676.600419 90.475158 
L 676.600419 71.937734 
" clip-path="url(#pf6183e542f)" style="fill: none; stroke: #d62728; stroke-width: 1.5"/>
    <path d="M 765.385984 64.344478 
L 765.385984 44.468761 
" clip-path="url(#pf6183e542f)" style="fill: none; stroke: #d62728; stroke-width: 1.5"/>
    <path d="M 913.361925 55.921293 
L 913.361925 45.304694 
" clip-path="url(#pf6183e542f)" style="fill: none; stroke: #d62728; stroke-width: 1.5"/>
   </g>
   <g id="LineCollection_15">
    <path d="M 676.600419 235.89049 
L 676.600419 173.305524 
" clip-path="url(#pf6183e542f)" style="fill: none; stroke: #9467bd; stroke-width: 1.5"/>
    <path d="M 765.385984 135.570737 
L 765.385984 77.916963 
" clip-path="url(#pf6183e542f)" style="fill: none; stroke: #9467bd; stroke-width: 1.5"/>
    <path d="M 913.361925 76.466666 
L 913.361925 49.48615 
" clip-path="url(#pf6183e542f)" style="fill: none; stroke: #9467bd; stroke-width: 1.5"/>
   </g>
   <g id="line2d_42">
    <path d="M 676.600419 186.279038 
L 765.385984 90.185935 
L 913.361925 59.517373 
" clip-path="url(#pf6183e542f)" style="fill: none; stroke: #1f77b4; stroke-width: 1.5; stroke-linecap: square"/>
    <g clip-path="url(#pf6183e542f)">
     <use xlink:href="#ma7e2f89ef6" x="676.600419" y="186.279038" style="fill: #1f77b4; stroke: #1f77b4"/>
     <use xlink:href="#ma7e2f89ef6" x="765.385984" y="90.185935" style="fill: #1f77b4; stroke: #1f77b4"/>
     <use xlink:href="#ma7e2f89ef6" x="913.361925" y="59.517373" style="fill: #1f77b4; stroke: #1f77b4"/>
    </g>
   </g>
   <g id="line2d_43">
    <path d="M 676.600419 86.818358 
L 765.385984 56.870929 
L 913.361925 46.218886 
" clip-path="url(#pf6183e542f)" style="fill: none; stroke: #ff7f0e; stroke-width: 1.5; stroke-linecap: square"/>
    <g clip-path="url(#pf6183e542f)">
     <use xlink:href="#m17250484f1" x="676.600419" y="86.818358" style="fill: #ff7f0e; stroke: #ff7f0e"/>
     <use xlink:href="#m17250484f1" x="765.385984" y="56.870929" style="fill: #ff7f0e; stroke: #ff7f0e"/>
     <use xlink:href="#m17250484f1" x="913.361925" y="46.218886" style="fill: #ff7f0e; stroke: #ff7f0e"/>
    </g>
   </g>
   <g id="line2d_44">
    <path d="M 676.600419 89.1073 
L 765.385984 51.1891 
L 913.361925 50.114854 
" clip-path="url(#pf6183e542f)" style="fill: none; stroke: #2ca02c; stroke-width: 1.5; stroke-linecap: square"/>
    <g clip-path="url(#pf6183e542f)">
     <use xlink:href="#m3adaeaba01" x="676.600419" y="89.1073" style="fill: #2ca02c; stroke: #2ca02c"/>
     <use xlink:href="#m3adaeaba01" x="765.385984" y="51.1891" style="fill: #2ca02c; stroke: #2ca02c"/>
     <use xlink:href="#m3adaeaba01" x="913.361925" y="50.114854" style="fill: #2ca02c; stroke: #2ca02c"/>
    </g>
   </g>
   <g id="line2d_45">
    <path d="M 676.600419 81.206446 
L 765.385984 54.406619 
L 913.361925 50.612993 
" clip-path="url(#pf6183e542f)" style="fill: none; stroke: #d62728; stroke-width: 1.5; stroke-linecap: square"/>
    <g clip-path="url(#pf6183e542f)">
     <use xlink:href="#m488acc787f" x="676.600419" y="81.206446" style="fill: #d62728; stroke: #d62728"/>
     <use xlink:href="#m488acc787f" x="765.385984" y="54.406619" style="fill: #d62728; stroke: #d62728"/>
     <use xlink:href="#m488acc787f" x="913.361925" y="50.612993" style="fill: #d62728; stroke: #d62728"/>
    </g>
   </g>
   <g id="line2d_46">
    <path d="M 676.600419 204.598007 
L 765.385984 106.74385 
L 913.361925 62.976408 
" clip-path="url(#pf6183e542f)" style="fill: none; stroke: #9467bd; stroke-width: 1.5; stroke-linecap: square"/>
    <g clip-path="url(#pf6183e542f)">
     <use xlink:href="#m6bcb82a828" x="676.600419" y="204.598007" style="fill: #9467bd; stroke: #9467bd"/>
     <use xlink:href="#m6bcb82a828" x="765.385984" y="106.74385" style="fill: #9467bd; stroke: #9467bd"/>
     <use xlink:href="#m6bcb82a828" x="913.361925" y="62.976408" style="fill: #9467bd; stroke: #9467bd"/>
    </g>
   </g>
   <g id="patch_13">
    <path d="M 664.762344 245.877656 
L 664.762344 26.16 
" style="fill: none; stroke: #000000; stroke-width: 0.8; stroke-linejoin: miter; stroke-linecap: square"/>
   </g>
   <g id="patch_14">
    <path d="M 925.2 245.877656 
L 925.2 26.16 
" style="fill: none; stroke: #000000; stroke-width: 0.8; stroke-linejoin: miter; stroke-linecap: square"/>
   </g>
   <g id="patch_15">
    <path d="M 664.762344 245.877656 
L 925.2 245.877656 
" style="fill: none; stroke: #000000; stroke-width: 0.8; stroke-linejoin: miter; stroke-linecap: square"/>
   </g>
   <g id="patch_16">
    <path d="M 664.762344 26.16 
L 925.2 26.16 
" style="fill: none; stroke: #000000; stroke-width: 0.8; stroke-linejoin: miter; stroke-linecap: square"/>
   </g>
   <g id="text_40">
    <!-- annotation_noise -->
    <g transform="translate(743.548047 20.16) scale(0.12 -0.12)">
     <use xlink:href="#DejaVuSans-44"/>
     <use xlink:href="#DejaVuSans-51" transform="translate(61.28125 0)"/>
     <use xlink:href="#DejaVuSans-51" transform="translate(124.65625 0)"/>
     <use xlink:href="#DejaVuSans-52" transform="translate(188.03125 0)"/>
     <use xlink:href="#DejaVuSans-57" transform="translate(249.21875 0)"/>
     <use xlink:href="#DejaVuSans-44" transform="translate(288.421875 0)"/>
     <use xlink:href="#DejaVuSans-57" transform="translate(349.703125 0)"/>
     <use xlink:href="#DejaVuSans-4c" transform="translate(388.90625 0)"/>
     <use xlink:href="#DejaVuSans-52" transform="translate(416.6875 0)"/>
     <use xlink:href="#DejaVuSans-51" transform="translate(477.875 0)"/>
     <use xlink:href="#DejaVuSans-42" transform="translate(541.25 0)"/>
     <use xlink:href="#DejaVuSans-51" transform="translate(591.25 0)"/>
     <use xlink:href="#DejaVuSans-52" transform="translate(654.625 0)"/>
     <use xlink:href="#DejaVuSans-4c" transform="translate(715.8125 0)"/>
     <use xlink:href="#DejaVuSans-56" transform="translate(743.59375 0)"/>
     <use xlink:href="#DejaVuSans-48" transform="translate(795.6875 0)"/>
    </g>
   </g>
   <g id="legend_1">
    <g id="patch_17">
     <path d="M 854.206875 242.377656 
L 920.3 242.377656 
Q 921.7 242.377656 921.7 240.977656 
L 921.7 189.174922 
Q 921.7 187.774922 920.3 187.774922 
L 854.206875 187.774922 
Q 852.806875 187.774922 852.806875 189.174922 
L 852.806875 240.977656 
Q 852.806875 242.377656 854.206875 242.377656 
z
" style="fill: #ffffff; opacity: 0.8; stroke: #cccccc; stroke-linejoin: miter"/>
    </g>
    <g id="LineCollection_16">
     <path d="M 862.606875 196.943828 
L 862.606875 189.943828 
" style="fill: none; stroke: #1f77b4; stroke-width: 1.5"/>
    </g>
    <g id="line2d_47">
     <path d="M 855.606875 193.443828 
L 869.606875 193.443828 
" style="fill: none; stroke: #1f77b4; stroke-width: 1.5; stroke-linecap: square"/>
    </g>
    <g id="line2d_48">
     <g>
      <use xlink:href="#ma7e2f89ef6" x="862.606875" y="193.443828" style="fill: #1f77b4; stroke: #1f77b4"/>
     </g>
    </g>
    <g id="text_41">
     <!-- confidence -->
     <g transform="translate(875.206875 195.893828) scale(0.07 -0.07)">
      <defs>
       <path id="DejaVuSans-13af" d="M 3431 3500 
L 3431 0 
L 2853 0 
L 2853 3053 
L 1275 3053 
L 1275 0 
L 697 0 
L 697 3053 
L 147 3053 
L 147 3500 
L 697 3500 
L 697 3744 
Q 697 4316 967 4589 
Q 1238 4863 1797 4863 
L 2375 4863 
L 2375 4384 
L 1825 4384 
Q 1516 4384 1395 4259 
Q 1275 4134 1275 3809 
L 1275 3500 
L 3431 3500 
z
M 2853 4856 
L 3431 4856 
L 3431 4128 
L 2853 4128 
L 2853 4856 
z
" transform="scale(0.015625)"/>
      </defs>
      <use xlink:href="#DejaVuSans-46"/>
      <use xlink:href="#DejaVuSans-52" transform="translate(54.984375 0)"/>
      <use xlink:href="#DejaVuSans-51" transform="translate(116.171875 0)"/>
      <use xlink:href="#DejaVuSans-13af" transform="translate(179.546875 0)"/>
      <use xlink:href="#DejaVuSans-47" transform="translate(242.53125 0)"/>
      <use xlink:href="#DejaVuSans-48" transform="translate(306.015625 0)"/>
      <use xlink:href="#DejaVuSans-51" transform="translate(367.546875 0)"/>
      <use xlink:href="#DejaVuSans-46" transform="translate(430.921875 0)"/>
      <use xlink:href="#DejaVuSans-48" transform="translate(485.90625 0)"/>
     </g>
    </g>
    <g id="LineCollection_17">
     <path d="M 862.606875 207.444375 
L 862.606875 200.444375 
" style="fill: none; stroke: #ff7f0e; stroke-width: 1.5"/>
    </g>
    <g id="line2d_49">
     <path d="M 855.606875 203.944375 
L 869.606875 203.944375 
" style="fill: none; stroke: #ff7f0e; stroke-width: 1.5; stroke-linecap: square"/>
    </g>
    <g id="line2d_50">
     <g>
      <use xlink:href="#m17250484f1" x="862.606875" y="203.944375" style="fill: #ff7f0e; stroke: #ff7f0e"/>
     </g>
    </g>
    <g id="text_42">
     <!-- diverse_cost -->
     <g transform="translate(875.206875 206.394375) scale(0.07 -0.07)">
      <defs>
       <path id="DejaVuSans-59" d="M 191 3500 
L 800 3500 
L 1894 563 
L 2988 3500 
L 3597 3500 
L 2284 0 
L 1503 0 
L 191 3500 
z
" transform="scale(0.015625)"/>
      </defs>
      <use xlink:href="#DejaVuSans-47"/>
      <use xlink:href="#DejaVuSans-4c" transform="translate(63.484375 0)"/>
      <use xlink:href="#DejaVuSans-59" transform="translate(91.265625 0)"/>
      <use xlink:href="#DejaVuSans-48" transform="translate(150.453125 0)"/>
      <use xlink:href="#DejaVuSans-55" transform="translate(211.984375 0)"/>
      <use xlink:href="#DejaVuSans-56" transform="translate(253.09375 0)"/>
      <use xlink:href="#DejaVuSans-48" transform="translate(305.1875 0)"/>
      <use xlink:href="#DejaVuSans-42" transform="translate(366.71875 0)"/>
      <use xlink:href="#DejaVuSans-46" transform="translate(416.71875 0)"/>
      <use xlink:href="#DejaVuSans-52" transform="translate(471.703125 0)"/>
      <use xlink:href="#DejaVuSans-56" transform="translate(532.890625 0)"/>
      <use xlink:href="#DejaVuSans-57" transform="translate(584.984375 0)"/>
     </g>
    </g>
    <g id="LineCollection_18">
     <path d="M 862.606875 217.944922 
L 862.606875 210.944922 
" style="fill: none; stroke: #2ca02c; stroke-width: 1.5"/>
    </g>
    <g id="line2d_51">
     <path d="M 855.606875 214.444922 
L 869.606875 214.444922 
" style="fill: none; stroke: #2ca02c; stroke-width: 1.5; stroke-linecap: square"/>
    </g>
    <g id="line2d_52">
     <g>
      <use xlink:href="#m3adaeaba01" x="862.606875" y="214.444922" style="fill: #2ca02c; stroke: #2ca02c"/>
     </g>
    </g>
    <g id="text_43">
     <!-- interval -->
     <g transform="translate(875.206875 216.894922) scale(0.07 -0.07)">
      <defs>
       <path id="DejaVuSans-4f" d="M 603 4863 
L 1178 4863 
L 1178 0 
L 603 0 
L 603 4863 
z
" transform="scale(0.015625)"/>
      </defs>
      <use xlink:href="#DejaVuSans-4c"/>
      <use xlink:href="#DejaVuSans-51" transform="translate(27.78125 0)"/>
      <use xlink:href="#DejaVuSans-57" transform="translate(91.15625 0)"/>
      <use xlink:href="#DejaVuSans-48" transform="translate(130.359375 0)"/>
      <use xlink:href="#DejaVuSans-55" transform="translate(191.890625 0)"/>
      <use xlink:href="#DejaVuSans-59" transform="translate(233 0)"/>
      <use xlink:href="#DejaVuSans-44" transform="translate(292.1875 0)"/>
      <use xlink:href="#DejaVuSans-4f" transform="translate(353.46875 0)"/>
     </g>
    </g>
    <g id="LineCollection_19">
     <path d="M 862.606875 228.445469 
L 862.606875 221.445469 
" style="fill: none; stroke: #d62728; stroke-width: 1.5"/>
    </g>
    <g id="line2d_53">
     <path d="M 855.606875 224.945469 
L 869.606875 224.945469 
" style="fill: none; stroke: #d62728; stroke-width: 1.5; stroke-linecap: square"/>
    </g>
    <g id="line2d_54">
     <g>
      <use xlink:href="#m488acc787f" x="862.606875" y="224.945469" style="fill: #d62728; stroke: #d62728"/>
     </g>
    </g>
    <g id="text_44">
     <!-- random -->
     <g transform="translate(875.206875 227.395469) scale(0.07 -0.07)">
      <use xlink:href="#DejaVuSans-55"/>
      <use xlink:href="#DejaVuSans-44" transform="translate(41.109375 0)"/>
      <use xlink:href="#DejaVuSans-51" transform="translate(102.390625 0)"/>
      <use xlink:href="#DejaVuSans-47" transform="translate(165.765625 0)"/>
      <use xlink:href="#DejaVuSans-52" transform="translate(229.25 0)"/>
      <use xlink:href="#DejaVuSans-50" transform="translate(290.4375 0)"/>
     </g>
    </g>
    <g id="LineCollection_20">
     <path d="M 862.606875 238.946016 
L 862.606875 231.946016 
" style="fill: none; stroke: #9467bd; stroke-width: 1.5"/>
    </g>
    <g id="line2d_55">
     <path d="M 855.606875 235.446016 
L 869.606875 235.446016 
" style="fill: none; stroke: #9467bd; stroke-width: 1.5; stroke-linecap: square"/>
    </g>
    <g id="line2d_56">
     <g>
      <use xlink:href="#m6bcb82a828" x="862.606875" y="235.446016" style="fill: #9467bd; stroke: #9467bd"/>
     </g>
    </g>
    <g id="text_45">
     <!-- uncertainty -->
     <g transform="translate(875.206875 237.896016) scale(0.07 -0.07)">
      <use xlink:href="#DejaVuSans-58"/>
      <use xlink:href="#DejaVuSans-51" transform="translate(63.375 0)"/>
      <use xlink:href="#DejaVuSans-46" transform="translate(126.75 0)"/>
      <use xlink:href="#DejaVuSans-48" transform="translate(181.734375 0)"/>
      <use xlink:href="#DejaVuSans-55" transform="translate(243.265625 0)"/>
      <use xlink:href="#DejaVuSans-57" transform="translate(284.375 0)"/>
      <use xlink:href="#DejaVuSans-44" transform="translate(323.578125 0)"/>
      <use xlink:href="#DejaVuSans-4c" transform="translate(384.859375 0)"/>
      <use xlink:href="#DejaVuSans-51" transform="translate(412.640625 0)"/>
      <use xlink:href="#DejaVuSans-57" transform="translate(476.015625 0)"/>
      <use xlink:href="#DejaVuSans-5c" transform="translate(515.21875 0)"/>
     </g>
    </g>
   </g>
  </g>
 </g>
 <defs>
  <clipPath id="pb197275ea8">
   <rect x="47.962344" y="26.16" width="260.437656" height="219.717656"/>
  </clipPath>
  <clipPath id="p5cb5013551">
   <rect x="356.362344" y="26.16" width="260.437656" height="219.717656"/>
  </clipPath>
  <clipPath id="pf6183e542f">
   <rect x="664.762344" y="26.16" width="260.437656" height="219.717656"/>
  </clipPath>
 </defs>
</svg>
